<svg xmlns="http://www.w3.org/2000/svg" width="399" height="343" viewBox="0 0 399 343"><g fill="none"><g transform="translate(0 46.325)"><g transform="translate(0 133.756)"><g transform="translate(313.297)"><g transform="translate(.718 49.108)"><path fill="#F5EBDD" d="M0.0749121686,69.9398725 C0.0749121686,69.9398725 85.4378414,43.0692072 74.9224305,11.4264624 C63.3243849,-23.475634 15.5581286,29.2592364 0.0749121686,69.9398725 Z" transform="translate(8.517)"/><path fill="#F5EBDD" d="M0.0749121686,69.9398725 C0.0749121686,69.9398725 85.4378414,43.0692072 74.9224305,11.4264624 C63.3243849,-23.475634 15.5581286,29.2592364 0.0749121686,69.9398725 Z" transform="translate(8.517)"/><path fill="#87530E" d="M34.5827408,0.0860655118 C34.0183341,0.423577323 33.4508488,0.781002331 32.8802848,1.15834054 C24.3201565,14.0105632 13.7170789,25.4178501 1.47874568,34.9415853 C1.00874879,35.6436098 0.543198738,36.348672 0.0820955272,37.0567718 C13.6833011,26.8169016 25.360196,14.3040037 34.5827408,0.0860655118 Z" transform="translate(23.397 4.253)"/><path fill="#FFB7D5" d="M0.0882526918,48.0741698 C19.3334967,26.2712443 50.7586383,0.496142362 51.1506444,0.17516863 C51.3448882,0.00686215269 51.6164825,-0.043997477 51.8597157,0.0423856831 C52.1029488,0.128768843 52.2793918,0.338746919 52.3203682,0.59059077 C52.3613446,0.842434621 52.2603805,1.09635486 52.0567738,1.25351887 C51.6637415,1.57550513 20.0230991,27.5278008 0.922548487,49.2537736 L0.0882526918,48.0741698 Z" transform="translate(0 30.072)"/></g><path fill="#F5EBDD" d="M0.0820955272,94.1951588 C0.0820955272,94.1951588 -2.39513701,-9.00245254 39.6818993,0.699661984 C71.8397435,8.11445896 42.8559176,66.3210709 0.0820955272,94.1951588 Z" transform="translate(17.24)"/><path fill="#FFB7D5" d="M0.0892788859,95.5114549 C16.3862672,59.538096 43.3597789,1.19782942 43.6809776,0.50323011 C43.7826466,0.26993762 44.0042887,0.109183538 44.2602949,0.0830589548 C44.5163012,0.0569343719 44.7665952,0.169528939 44.9145013,0.377353125 C45.0624074,0.585177311 45.0847717,0.855697457 44.972956,1.08442545 L44.972956,1.08442545 C44.6497049,1.78509997 17.2913704,60.9586832 1.03748223,96.8530643 L0.0892788859,95.5114549 Z" transform="translate(0 35.844)"/></g><g fill="#30242A" transform="translate(322.43 67.739)"><path d="M2.48133731,65.2599337 C16.3018308,55.2574441 29.3003187,44.1938528 41.3556218,32.1723009 C53.0213963,20.2243827 59.3417257,9.78615496 60.1452356,1.15024025 C60.2017119,0.584556494 59.7882461,0.0786031774 59.2159904,0.0131337924 C58.6437348,-0.0523355926 58.123904,0.346843138 58.0476949,0.910269354 C58.0476949,0.926469921 58.0476949,0.943683024 58.0476949,0.960896126 C56.6510448,16.0577994 36.354978,38.8114957 0.0174452995,64.4256045 L2.48133731,65.2599337 Z" transform="translate(0 9.72)"/><path d="M0.056440675,6.2837949 C0.056440675,6.2837949 5.73129399,12.9412154 17.2092749,2.63866734 C17.2092749,2.64271748 5.59481018,-5.12241676 0.056440675,6.2837949 Z" transform="translate(50.797 24.098)"/><path d="M5.91087796,17.1604505 C5.91087796,17.1604505 12.9659623,11.9408304 3.1781231,0.0597395906 C3.18120168,0.0617646614 -5.32286875,11.0730875 5.91087796,17.1604505 Z" transform="translate(39.303 18.833)"/><path d="M3.16375638,17.117924 C3.16375638,17.117924 11.5785479,14.517733 6.36753433,0.0951783307 C6.36753433,0.0951783307 -5.37007367,7.68008126 3.16375638,17.117924 Z" transform="translate(54.388)"/><path d="M0.0502835104,3.4861595 C0.0502835104,3.4861595 3.10628951,11.6482076 17.4391424,5.78461493 C17.4360638,5.78461493 9.1690442,-5.39985146 0.0502835104,3.4861595 Z" transform="translate(34.172 44.147)"/><path d="M4.41263459,17.3578949 C4.41263459,17.3578949 12.2773861,13.4211572 4.72049282,0.0486017008 C4.72049282,0.0486017008 -5.58865302,9.44391798 4.41263459,17.3578949 Z" transform="translate(23.192 35.135)"/><path d="M0.0133405232,3.33326665 C0.0133405232,3.33326665 2.9164436,11.5510042 17.3560206,5.95674595 C17.3549945,5.95877102 9.30142323,-5.38162583 0.0133405232,3.33326665 Z" transform="translate(19.19 56.702)"/><path d="M3.58346976,17.3548573 C3.58346976,17.3548573 -4.24844353,13.3573674 3.41209535,0.0405014173 C3.41414774,0.0445515591 13.6483814,9.51985814 3.58346976,17.3548573 Z" transform="translate(9.133 48.5)"/></g><g transform="translate(0 26.933)"><g transform="translate(0 40.4)"><path fill="#30242A" d="M29.8530123,12.0258833 C29.414935,12.3945595 28.8891855,12.6474902 28.3250093,12.7609841 C26.3824239,13.1244843 24.3587691,11.2897701 22.5249603,12.5989784 C20.4079219,14.1096813 18.9886954,16.3615601 17.4791639,18.4656087 C15.9696324,20.5696573 14.1953429,22.6625681 11.7571057,23.5809377 C7.43785477,25.2070696 2.22889356,22.1907266 0.810693331,17.8509997 C-0.607506901,13.5112728 -0.63213556,8.91132435 7.85551576,3.85776 C13.5190809,0.487029543 25.5450495,-2.21036485 31.1224144,2.69739439 C33.1748025,4.50072 32.4564667,8.24203843 31.2609506,10.3035606 C30.8999605,10.9562299 30.4230735,11.539603 29.8530123,12.0258833 L29.8530123,12.0258833 Z" transform="translate(0 2.025)"/><path fill="#FFB7D5" d="M0.0615716454,11.4264624 C2.28225566,8.39999395 7.76315829,7.5241508 11.224511,9.03384113 C14.6858636,10.5435315 17.2226154,13.5375987 19.4925567,16.5266033 C21.7624981,19.5156079 23.9759987,22.6666182 27.118205,24.7504161 C30.2604113,26.834214 34.6535482,27.5855153 37.7906236,25.4885545 C39.8092435,24.0030315 41.1196155,21.7635624 41.4141149,19.2958877 C41.6908179,16.8522789 41.5222617,14.3795346 40.9164108,11.9944947 C40.1672891,8.48302186 38.9440657,4.81460598 36.0932985,2.57791521 C32.918254,0.091128189 28.5128028,-0.0263259213 24.4613885,0.10429115 C19.8127293,0.254146394 15.0953151,0.598408441 10.7319378,2.18910161 C6.36856052,3.77979477 1.91590437,7.21228989 0.0595192572,11.4224122" transform="translate(1.437)"/><path fill="#30242A" d="M25.8775364,62.0734847 L25.0237429,62.0481713 C26.2377305,23.3298289 18.5854012,9.0500417 11.9520826,3.8891486 C8.75403013,1.24407929 4.46153904,0.278688975 0.417660995,1.29503282 C0.311703904,1.33781169 0.195211897,1.34838913 0.0831217213,1.32540888 L0.18574113,0.920394709 L0.111855156,0.506267717 C4.43811785,-0.611716384 9.0452642,0.400855425 12.4815987,3.22492535 C24.7774563,12.7964228 26.5537983,40.5074925 25.8775364,62.0734847 Z" transform="translate(15.188 3.139)"/></g><g transform="translate(43.305)"><path fill="#FFB7D5" d="M6.31725082,67.3609448 C1.73016324,62.0177953 1.11957775,53.4416202 1.79583966,46.4713262 C2.47210156,39.5010323 4.10477636,32.4871994 2.99135577,25.5725949 C2.33048678,21.4758765 0.720388251,17.5674898 0.172400607,13.4505207 C-0.375587037,9.33355162 0.400215695,4.68702652 3.6296485,2.03013354 C7.34344491,-1.02063572 13.1896726,-0.298697953 17.051241,2.56373972 C20.9128094,5.42617739 23.1509387,9.93094753 24.7866921,14.417492 C28.3783714,24.2765495 29.698057,35.2048445 26.7467228,45.2674216 C23.7953886,55.3299987 16.876788,64.3273886 6.71541413,67.3609448"/><path fill="#30242A" d="M2.75122636,106.322296 C2.44336813,106.018535 -4.77795968,98.3850304 5.5045051,64.3567521 C16.3760053,28.3793431 8.86631694,0.791802709 8.75959275,0.613596472 L9.00074837,0.473866583 L9.34760197,0.0172131024 C10.0413092,0.530568567 17.077922,29.0061026 6.32238179,64.596723 C-1.74452995,91.315508 0.856872065,103.179386 3.35770706,105.727937 L2.75122636,106.322296 Z" transform="translate(0 5.063)"/></g><g transform="translate(47.308 58.626)"><path fill="#30242A" d="M1.66346062,11.1763661 C4.16429562,6.24531855 8.13669294,1.81041335 13.5673121,0.523480819 C19.1170116,-0.732939212 24.9360778,0.827154099 29.0782357,4.68196384 C30.9951663,6.50452762 32.5252217,9.17357102 31.7299213,11.6765586 C30.8843373,14.3405393 27.6969785,15.6618981 24.8728924,15.4897671 C22.0488062,15.317636 19.4340637,14.0418414 16.7782734,13.0890455 C14.1224831,12.1362497 11.108551,11.5064527 8.51125378,12.6121414 C6.29877933,13.5527868 5.28900434,15.4077517 4.0986192,17.318406 C3.1596516,18.8372092 1.57212935,19.6249618 0.386875172,17.4652237 C-0.615716454,15.6183591 0.844557736,12.7933852 1.66346062,11.1763661 Z" transform="translate(23.192 2.126)"/><path fill="#FFB7D5" d="M3.3864405,32.0669972 C-0.757331239,28.1829112 -0.550040032,21.4222122 1.51671487,16.1701909 C3.58346976,10.9181696 8.09359279,6.87714066 13.1322058,4.21518501 C23.0977417,-0.947761594 34.9103162,-1.32529298 45.1935877,3.19049915 C40.1478606,3.40244578 35.5374716,6.07071126 32.8874682,10.3126734 C30.6165007,14.0347536 30.1116132,18.5496491 28.2357304,22.4792992 C23.8448753,31.6765628 12.9356969,35.8856934 3.3864405,32.0669972" transform="translate(.924)"/><path fill="#30242A" d="M0.90818177,45.6228215 L0.0605454513,45.521568 C1.74658234,32.3464569 6.21052663,14.6989769 17.9101655,5.44339049 C24.9652498,-0.135679748 31.215798,0.0030376063 31.4795299,0.000954768171 L31.4528489,0.843442016 C31.1963003,0.832304126 6.66307823,0.635872252 0.90818177,45.6228215 Z" transform="translate(0 3.443)"/></g><g transform="translate(29.041 111.176)"><path fill="#00ACB1" d="M0.0431001518,0.931532598 L4.69586416,22.1269368 C4.7709507,22.4742635 5.08197613,22.7223077 5.44190726,22.7223077 L25.8539339,22.7223077 C26.2182663,22.7218575 26.5315137,22.4674723 26.6020294,22.1147864 L30.9582233,0.918369638 C31.0037881,0.696569885 30.9460203,0.46630356 30.8008546,0.291087826 C30.655689,0.115872091 30.4384648,0.0141754961 30.2091016,0.0141754961 L0.794274226,0.0141754961 C0.590423469,0.0147118618 0.395137934,0.0951281903 0.25137858,0.237733654 C0.107619227,0.380339119 0.0271621859,0.573452109 0.0277007641,0.774589606 C0.0277007641,0.827280862 0.0326487956,0.879859868 0.0431001518,0.931532598 L0.0431001518,0.931532598 Z"/><path fill="#0958BD" d="M26.8934685,12.0856229 C23.9051913,9.97246148 20.1298233,11.0680248 14.1224831,12.8116108 L12.779195,13.2004244 C11.4964846,13.5777688 10.1658112,13.7727868 8.82732156,13.7795947 C6.68935168,13.7788429 4.58760313,13.2348563 2.72454531,12.2000394 L2.32432961,10.3774757 C5.25792817,12.4057164 8.98060263,12.9726261 12.3974508,11.9114668 L13.7386865,11.5226532 C19.6711145,9.80134299 23.7707599,8.62173921 27.1818291,10.6741485 L26.8934685,12.0856229 Z M13.7417651,8.89512378 L12.4015556,9.28292485 C8.69702733,10.4546828 4.64280969,9.68629788 1.64191054,7.24367849 L2.06983348,9.18167131 C4.09942384,10.4581267 6.45538552,11.1380531 8.86221216,11.1419399 C10.1912456,11.1361755 11.5126363,10.9431963 12.7863784,10.5688449 L12.7863784,10.5688449 L14.127614,10.1800312 C20.6080297,8.29671534 24.3166952,7.23051553 27.3655178,9.81045581 L27.6641403,8.35949254 C24.1483993,5.87979326 19.9071392,7.1039486 13.7366341,8.89411124 L13.7417651,8.89512378 Z M13.7417651,5.9324451 L12.3995032,6.32125871 C8.32734795,7.59301868 3.87629425,6.53773724 0.834295795,3.57931276 L1.30018791,5.70563717 C3.49333109,7.30064396 6.14386696,8.16589515 8.86836933,8.17622362 C10.1932661,8.17113786 11.5105942,7.97882831 12.7802212,7.60515364 L14.1245355,7.21634003 C20.8912593,5.25202129 24.7045965,4.15848302 27.8755363,7.33784428 L28.1936564,5.78664 C24.5752961,2.78751005 20.1790806,4.06532976 13.7376603,5.93143257 L13.7417651,5.9324451 Z M13.7417651,3.08013279 L12.3995032,3.46894639 C8.09772227,4.78101841 3.41483908,3.52699762 0.375587037,0.249083717 C0.293723291,0.148129099 0.182264752,0.0745766711 0.056440675,0.0384763465 L0.549013838,2.27921726 C2.85120481,4.23695441 5.78606553,5.31951238 8.82526918,5.33201159 C10.1658178,5.32571208 11.4985958,5.13068948 12.7832998,4.75284132 L14.127614,4.36301518 C21.4300112,2.24276598 25.1243099,1.17757871 28.3527165,4.97863672 L28.6790462,3.38996863 C24.9724332,-0.170105953 20.4335767,1.13707729 13.7397127,3.07912025 L13.7417651,3.08013279 Z" transform="translate(.821 4.658)"/></g><path fill="#00ACB1" d="M39.2970765,7.66590576 L2.01031422,7.66590576 C1.32285849,7.66562977 0.743932906,7.15874803 0.661895188,6.48528945 L0.0738859745,1.59778091 C0.0316697076,1.24491237 0.133265698,0.889950714 0.356319472,0.610999243 C0.579373246,0.332047771 0.905609299,0.151961862 1.26324493,0.110366362 C1.31597062,0.103433423 1.36911353,0.100050483 1.42230501,0.100233389 L39.2970765,0.100233389 C40.0468885,0.100233389 40.6547313,0.699993363 40.6547313,1.43982539 L40.6547313,1.43982539 L40.6547313,6.32733392 C40.6541648,7.06677049 40.046488,7.66590576 39.2970765,7.66590576 L39.2970765,7.66590576 Z" transform="translate(23.808 104.392)"/></g></g><g transform="translate(151.774)"><path fill="#30242A" d="M24.5568246,0.0577145197 L121.976508,0.0577145197 C135.493537,0.0577145197 146.452263,10.8705804 146.452263,24.2076971 L146.452263,24.2076971 L146.452263,268.520347 C146.452263,281.857463 135.493537,292.670329 121.976508,292.670329 L24.5568246,292.670329 C11.0387698,292.670329 0.0810693331,281.857463 0.0810693331,268.520347 L0.0810693331,24.2076971 C0.0810693331,10.8705804 11.0387698,0.0577145197 24.5568246,0.0577145197 Z" transform="translate(40.022)"/><g transform="translate(46.281 4.86)"><path fill="#F5EBDD" d="M133.995293,18.1993119 L133.995293,264.169482 C133.982266,274.183152 125.745411,282.290882 115.596659,282.279704 L18.4160791,282.279704 C13.5421839,282.285602 8.86557592,280.380684 5.4152659,276.984084 C1.96495588,273.587483 0.0236394903,268.977494 0.0184714936,264.168469 L0.0184714936,264.168469 L0.0184714936,18.1993119 C0.0233677567,13.3901945 1.96439043,8.7799953 5.41447836,5.38304393 C8.86456628,1.98609256 13.5410633,0.0806918675 18.4150529,0.0860532425 L37.6048824,0.0860532425 C38.9676552,0.0831073094 40.2756394,0.615188763 41.2403258,1.56494572 C42.2050122,2.51470268 42.7471443,3.80410522 42.747141,5.14874268 L42.747141,5.1608931 C42.7490451,6.83900672 43.4264923,8.44764273 44.6304517,9.63291904 C45.8344112,10.8181953 47.4662606,11.4830201 49.1670113,11.4811393 L88.8499367,11.4811393 C92.3913327,11.4844966 95.2652756,8.65515183 95.2698069,5.1608931 L95.2698069,5.1608931 C95.2700786,3.81399443 95.8128914,2.52242703 96.7787173,1.57059573 C97.7445432,0.618764423 99.0541818,0.0860532425 100.419249,0.0860532425 L115.596659,0.0860532425 C120.470838,0.08069169 125.147547,1.98602783 128.59796,5.38292111 C132.048374,8.77981438 133.989853,13.3900085 133.995293,18.1993119 L133.995293,18.1993119 Z"/><g transform="translate(47.615 .506)"><rect width="35.744" height="2.275" x=".09" y=".048" fill="#F5EBDD" rx="1.138" transform="translate(0 .101)"/><ellipse cx="1.347" cy="1.288" fill="#F3F7FF" rx="1.297" ry="1.28" transform="translate(38.38)"/></g></g><path fill="#CA7358" d="M0.472049282,8.15906215 C0.319533761,8.16136186 0.177332262,8.08325151 0.0990107138,7.95410288 C0.0206891658,7.82495426 0.0181464764,7.6643881 0.0923404521,7.53288813 C0.166534428,7.40138817 0.306193238,7.31893237 0.458708758,7.31658104 C0.513097045,7.31658104 5.92524468,7.06344718 10.035152,0.228833008 C10.1106765,0.098062527 10.2511704,0.0169811812 10.4037109,0.0161247868 C10.5562514,0.0152818763 10.697664,0.0947929996 10.77468,0.224713828 C10.851696,0.354634656 10.8526148,0.515227125 10.7770903,0.645997606 C10.7770903,0.645997606 10.7770903,0.65409789 10.769907,0.659160567 C6.41371306,7.90587666 0.723466834,8.15192277 0.483337417,8.15906215 L0.472049282,8.15906215 Z" transform="translate(0 40.603)"/></g></g><g transform="translate(97)"><g transform="translate(0 168.508)"><g transform="translate(7.068)"><g transform="translate(0 143.51)"><path fill="#FFC0C2" d="M27.695113,1.95124905 L27.3703968,8.53772666 C27.3471008,9.3220328 26.7932449,9.992973 26.0203151,10.1732134 C16.1573699,12.5120525 7.25955551,17.7876451 0.530608741,25.286285 C0.0576707165,25.7895589 -0.0800963374,26.5167242 0.176578889,27.1549338 C0.433254116,27.7931434 1.03859279,28.2285706 1.73216097,28.2738821 L10.3017994,28.3690156 C14.1389816,28.4101727 17.9768466,28.4472815 21.8153945,28.4803421 C25.9933408,28.5167762 30.1706042,28.5451138 34.3471847,28.565355 C38.2246576,28.5828974 42.1014476,28.5879577 45.9775547,28.5805359 C48.9112679,28.5704153 51.8460054,28.5552344 54.7786943,28.47933 C55.9443946,28.4489683 56.6716768,28.3174006 57.8343041,28.2455445 C59.121901,28.1666039 58.863767,26.3398381 58.8227933,25.579782 C58.737773,24.0050188 58.6373876,22.4302556 58.5359778,20.8565044 C58.2747708,16.8376195 57.99615,12.8207588 57.7369917,8.80187396 C57.5853892,6.44377734 57.4296893,4.08568072 57.3272552,1.72657203 C57.3096939,0.804768897 56.5557991,0.0625996347 55.6227514,0.0485788145 L29.3791299,0.268195539 C28.4543765,0.298102836 27.7147555,1.03730072 27.695113,1.95124905 Z" transform="translate(.102)"/><path fill="#141C37" d="M1.72908794,22.9140196 C4.6146571,22.9464055 7.49715323,23.0354666 10.3816981,23.1214916 C14.2506348,23.2378784 18.1185471,23.3653977 21.9874838,23.4827965 C26.1934288,23.611328 30.4003981,23.731763 34.6042944,23.8198121 C38.4967909,23.9038129 42.3985066,23.9685847 46.2951005,23.9635244 C49.2349597,23.9635244 52.1830137,23.940247 55.1167269,23.7337871 C56.4073968,23.6427018 58.5564646,23.71557 59.0655622,22.8360911 C59.5357348,22.0264442 59.3093554,20.5083562 59.2437976,19.4082485 C59.1208766,17.3355524 58.9170327,15.2669045 58.7152375,13.1992687 C58.2932089,8.89093512 57.8148416,4.58361356 57.5413425,0.262123187 C57.5331258,0.142653716 57.428752,0.0521955591 57.3077927,0.0597114595 L57.2760381,0.0597114595 C53.5126086,0.817743378 49.5453351,4.99147319 48.0159937,6.74941905 C47.4995553,7.34285075 46.8532912,7.81247937 46.1260842,8.12278262 C38.3298233,11.4504314 29.9763208,7.31313571 26.0694835,4.85788145 C26.0224064,4.82813345 25.9653467,4.81794948 25.9107106,4.82954381 C16.0893197,7.18548559 7.23170393,12.451797 0.525487035,19.9223743 C0.0504412876,20.4257647 -0.0883558082,21.1546062 0.169034342,21.7941533 C0.426424492,22.4337005 1.03388493,22.8693648 1.72908794,22.9130075 L1.72908794,22.9140196 Z" transform="translate(.102 5.364)"/><g fill="#E3EAFC" transform="translate(12.804 11.031)"><path d="M4.88918054,4.56033622 L4.85127992,4.56033622 C1.90732331,4.30833362 0.175162345,0.827863965 0.103458461,0.680103404 C0.0267333745,0.546031033 0.0302305043,0.381265739 0.112576988,0.250489167 C0.194923471,0.119712596 0.342974999,0.0437995633 0.49861122,0.0525511273 C0.654247442,0.0613026914 0.792625394,0.15332191 0.859422266,0.292484946 L0.870690019,0.313738177 C0.886055137,0.346124054 2.46661361,3.51083141 4.92605683,3.72133961 C5.15761199,3.73652705 5.33453458,3.93159471 5.32451472,4.16066311 C5.31449486,4.3897315 5.12119853,4.56899115 4.88918054,4.56438445 L4.88918054,4.56438445 L4.88918054,4.56033622 Z" transform="translate(4.2 1.72)"/><path d="M4.92503248,4.55021563 L4.88713186,4.55021563 C1.9441996,4.29720097 0.212038628,0.817743378 0.140334744,0.669982817 C0.0636096577,0.535910447 0.0671067874,0.371145153 0.149453271,0.240368581 C0.231799755,0.109592009 0.379851282,0.0336789769 0.535487504,0.042430541 C0.691123725,0.051182105 0.829501677,0.143201323 0.896298549,0.28236436 L0.907566302,0.303617591 C0.92293142,0.336003467 2.50246555,3.49969876 4.96190877,3.71020696 C5.19346393,3.72539441 5.37038652,3.92046207 5.36036666,4.14953046 C5.3503468,4.37859885 5.15705047,4.55785851 4.92503248,4.55325181 L4.92503248,4.55325181 L4.92503248,4.55021563 Z" transform="translate(0 3.846)"/><path d="M4.91683775,4.51782975 L4.87996147,4.51782975 C1.93600487,4.26481509 0.203843899,0.785357502 0.132140015,0.638609 C0.0657179366,0.503199639 0.0774581598,0.343065373 0.162938256,0.218527229 C0.248418352,0.0939890852 0.394651861,0.0239673702 0.546554035,0.0348385866 C0.698456209,0.045709803 0.832949495,0.135822354 0.899371573,0.271231715 C0.914736691,0.303617591 2.49529516,3.47237318 4.95371404,3.67883314 C5.1890569,3.68889415 5.37158494,3.88554566 5.36140183,4.11806659 C5.35121873,4.35058752 5.15218061,4.53092693 4.91683775,4.52086593 L4.91683775,4.51782975 Z" transform="translate(8.81)"/></g><path fill="#EAA58B" d="M27.695113,1.95124905 L27.3703968,8.53772666 C27.3471008,9.3220328 26.7932449,9.992973 26.0203151,10.1732134 C16.1573699,12.5120525 7.25955551,17.7876451 0.530608741,25.286285 C0.0576707165,25.7895589 -0.0800963374,26.5167242 0.176578889,27.1549338 C0.433254116,27.7931434 1.03859279,28.2285706 1.73216097,28.2738821 L10.3017994,28.3690156 C14.1389816,28.4101727 17.9768466,28.4472815 21.8153945,28.4803421 C25.9933408,28.5167762 30.1706042,28.5451138 34.3471847,28.565355 C38.2246576,28.5828974 42.1014476,28.5879577 45.9775547,28.5805359 C48.9112679,28.5704153 51.8460054,28.5552344 54.7786943,28.47933 C55.9443946,28.4489683 56.6716768,28.3174006 57.8343041,28.2455445 C59.121901,28.1666039 58.863767,26.3398381 58.8227933,25.579782 C58.737773,24.0050188 58.6373876,22.4302556 58.5359778,20.8565044 C58.2747708,16.8376195 57.99615,12.8207588 57.7369917,8.80187396 C57.5853892,6.44377734 57.4296893,4.08568072 57.3272552,1.72657203 C57.3096939,0.804768897 56.5557991,0.0625996347 55.6227514,0.0485788145 L29.3791299,0.268195539 C28.4543765,0.298102836 27.7147555,1.03730072 27.695113,1.95124905 Z" transform="translate(.102)"/><path fill="#30242A" d="M1.72908794,22.9140196 C4.6146571,22.9464055 7.49715323,23.0354666 10.3816981,23.1214916 C14.2506348,23.2378784 18.1185471,23.3653977 21.9874838,23.4827965 C26.1934288,23.611328 30.4003981,23.731763 34.6042944,23.8198121 C38.4967909,23.9038129 42.3985066,23.9685847 46.2951005,23.9635244 C49.2349597,23.9635244 52.1830137,23.940247 55.1167269,23.7337871 C56.4073968,23.6427018 58.5564646,23.71557 59.0655622,22.8360911 C59.5357348,22.0264442 59.3093554,20.5083562 59.2437976,19.4082485 C59.1208766,17.3355524 58.9170327,15.2669045 58.7152375,13.1992687 C58.2932089,8.89093512 57.8148416,4.58361356 57.5413425,0.262123187 C57.5331258,0.142653716 57.428752,0.0521955591 57.3077927,0.0597114595 L57.2760381,0.0597114595 C51.8849304,1.14767449 49.659037,7.16537515 44.5383553,8.73102986 C38.2704115,10.6478689 31.3724979,8.18350613 26.0694835,4.8568694 C26.0225514,4.8267725 25.9654814,4.81622292 25.9107106,4.8275197 C16.0889415,7.18371357 7.23121044,12.4507998 0.525487035,19.9223743 C0.0497927013,20.4257106 -0.089409069,21.1549706 0.168054538,21.7949168 C0.425518144,22.434863 1.03346122,22.8706966 1.72908794,22.9140196 L1.72908794,22.9140196 Z" transform="translate(.102 5.364)"/><g fill="#E3EAFC" transform="translate(12.907 11.133)"><path d="M4.78674642,4.35387625 L4.75806487,4.35387625 C1.87454439,4.10187365 0.167991957,0.678079286 0.0962880727,0.532342843 C0.0419153378,0.432214947 0.0461867342,0.310944566 0.107472831,0.214793308 C0.168758928,0.11864205 0.277607495,0.0624394432 0.392495534,0.067625372 C0.507383572,0.0728113009 0.610591757,0.138585933 0.662748756,0.239857897 L0.671967826,0.258074952 C0.687332944,0.290460829 2.29145126,3.50779523 4.81337929,3.72437578 C4.98457506,3.73793837 5.11431268,3.88275596 5.10715137,4.05229427 C5.09999007,4.22183258 4.95849066,4.35546622 4.78674642,4.35489018 L4.78674642,4.35387625 Z" transform="translate(4.2 1.72)"/><path d="M4.82259836,4.34376318 L4.79494115,4.34376318 C1.91039634,4.0958013 0.203843899,0.666946641 0.133164356,0.521210198 C0.0787916209,0.421082302 0.0830630173,0.299811921 0.144349114,0.203660663 C0.205635212,0.107509405 0.314483778,0.0513067982 0.429371817,0.056492727 C0.544259855,0.0616786559 0.64746804,0.127453288 0.699625039,0.228725252 L0.70884411,0.246942307 C0.724209228,0.279328184 2.32832754,3.49767465 4.85025558,3.71324314 C5.02167928,3.72678636 5.15152184,3.87192314 5.14407584,4.04167263 C5.13662983,4.21142211 4.99456523,4.34491609 4.82259836,4.34376318 L4.82259836,4.34376318 Z" transform="translate(0 3.846)"/><path d="M4.81440363,4.3113773 L4.78777076,4.3113773 C1.90220161,4.06341543 0.19667351,0.635572824 0.124969626,0.48983638 C0.0705968914,0.389708484 0.0748682877,0.268438104 0.136154385,0.172286845 C0.197440482,0.0761355872 0.306289048,0.0199329804 0.421177087,0.0251189093 C0.536065126,0.0303048381 0.639273311,0.0960794703 0.691430309,0.197351434 L0.70064938,0.21556849 C0.716014498,0.247954366 2.32013282,3.46528877 4.84206085,3.68085726 C5.01348455,3.69440048 5.14332711,3.83953726 5.13588111,4.00928675 C5.1284351,4.17903624 4.9863705,4.31253022 4.81440363,4.3113773 L4.81440363,4.3113773 Z" transform="translate(8.81)"/></g><path fill="#E3EAFC" d="M0.423052915,16.2405049 C0.251660508,16.2395946 0.111097795,16.1060588 0.103458461,15.9368873 C-0.254036617,6.00555595 8.12814741,0.208484079 8.21316773,0.14877262 C8.35899408,0.0557217323 8.55328979,0.0942408986 8.65149503,0.235671103 C8.74970028,0.377101308 8.71614036,0.57006565 8.57578452,0.670994876 C8.48973986,0.725646042 0.397444385,6.33852324 0.74367171,15.9115859 C0.750020677,16.0858156 0.612680237,16.2323647 0.436369351,16.2394929 L0.423052915,16.2394929 L0.423052915,16.2405049 Z" transform="translate(45.378 9.31)"/><path fill="#FFB7D5" d="M2.15931125,5.8355301 C13.4209184,6.61886348 22.1339646,6.08854476 32.294405,6.30613736 C37.4417195,6.41645175 43.0079896,6.53486262 48.1553041,6.61886348 C50.145599,6.65226142 57.8865455,7.03481958 59.170045,4.82448352 C59.6402176,4.01483661 59.4148626,2.49674866 59.3493047,1.39562886 C59.3216475,0.94222659 59.2796495,0.484776087 59.2468706,0.0354220523 C49.8178099,1.43408709 10.3642842,0.54954784 2.2002849,0.276292008 C1.67377352,0.805598675 1.15033517,1.34198975 0.63201852,1.91177876 C-0.390273997,3.03212767 -0.0532657423,5.68169718 2.15931125,5.8355301 Z" transform="translate(0 23.379)"/><path fill="#CA7358" d="M19.8107588,5.72217953 C24.4049291,3.55839817 27.5957519,2.70017244 29.8124263,2.48359189 C29.7991098,2.23057723 29.7827204,1.98363493 29.7724769,1.7346685 C29.7543864,0.812529392 29.0003385,0.0702077697 28.0669488,0.055663225 L1.82332733,0.275279949 C0.904032282,0.307023949 0.168277805,1.03971849 0.143407768,1.94821288 L0.015365118,4.54717945 C5.94171363,8.36251297 13.4647093,8.80905728 19.8107588,5.72217953 L19.8107588,5.72217953 Z" transform="translate(27.657)"/></g><path fill="#0958BD" d="M17.5285266,0.933118063 C13.3594579,6.05008653 -3.39978844,33.6620823 0.676065191,143.474493 C0.719050735,144.719126 1.75109524,145.707043 3.01156312,145.710136 L41.502208,145.710136 C43.4609095,145.713516 45.069576,144.181893 45.1386193,142.247878 C45.6866418,127.529509 46.9578492,69.0527608 48.8190772,59.443264 C50.8677596,48.9046974 71.8667542,25.3217071 73.1748379,9.32713239 C73.2874056,8.07793958 72.3843809,6.96269351 71.1261555,6.7969858 L19.667351,0.0991817464 C18.8557728,-0.0122369005 18.0443687,0.304132849 17.5285266,0.933118063 L17.5285266,0.933118063 Z" transform="translate(20.18)"/><rect width="47.461" height="10.088" x=".036" y=".071" fill="#00ACB1" rx="5.044" transform="translate(19.36 136.02)"/></g><g transform="translate(0 1.214)"><g transform="translate(60.948 92.603)"><path fill="#FFC0C2" d="M0.903468937,22.3968576 L5.65743644,27.02905 C6.23363415,27.5686693 6.37103138,28.423436 5.99239601,29.1128787 C1.18401217,37.9383969 -0.764743695,48.010124 0.40973648,57.9656584 C0.473784387,58.6498141 0.930602584,59.2364826 1.58349421,59.4730562 C2.23638584,59.7096297 2.96878934,59.5538725 3.46534628,59.0728505 C5.39315641,56.9900339 7.3206251,54.9068798 9.24775234,52.8233885 C11.8359211,50.0240343 14.4220412,47.2219813 17.0061126,44.4172294 C19.8182706,41.3635112 22.6242826,38.3047326 25.4241486,35.2408938 C28.0191463,32.397009 30.6062907,29.5450278 33.1855818,26.6849501 C35.1318301,24.5171205 37.0780784,22.3452426 38.9761826,20.1349066 C39.7300977,19.2564397 40.11525,18.6340236 40.8363862,17.7292432 C41.634348,16.7273051 40.0845198,15.7051259 39.4832315,15.223386 C38.238657,14.2356168 36.9828146,13.2610043 35.7269723,12.288416 C32.5218087,9.80178789 29.304353,7.32932864 26.0981651,4.84371263 C24.2236207,3.38533614 22.3378085,1.92695964 20.4888727,0.432149038 C19.7807317,-0.169611206 18.717212,-0.108275403 18.0847439,0.570801071 L0.76006117,20.0397731 C0.168476403,20.7389922 0.231367768,21.7726898 0.903468937,22.3968576 Z"/><path fill="#141C37" d="M3.46534628,56.3342199 C5.41159455,54.2291379 7.40086516,52.1655504 9.38808709,50.1009507 C12.0513742,47.3292595 14.7204659,44.5595923 17.3953622,41.7919493 C20.2942478,38.7800628 23.1832315,35.7570437 26.0623131,32.7228919 C28.7256002,29.9093689 31.3673762,27.0796529 33.9620324,24.2064185 C35.9174998,22.0396009 37.8678454,19.8545663 39.6676129,17.553145 C40.4584043,16.5410864 41.9457478,15.0068055 41.6210316,14.0453498 C41.321924,13.1577743 40.028181,12.3147295 39.1533936,11.6285537 C37.5072773,10.338179 35.8109683,9.11055184 34.1156836,7.88393678 C30.5837552,5.32241637 27.0149504,2.80441448 23.5721397,0.125495271 C23.4775171,0.0523488735 23.3411046,0.0671743159 23.2648373,0.158893206 C23.2577641,0.16735663 23.2515859,0.176512829 23.2463992,0.186218789 C21.3114186,3.46427671 21.8123215,9.16722713 22.1196238,11.4646002 C22.222614,12.2411531 22.1466268,13.030662 21.8973418,13.774118 C19.2115192,21.7329472 10.5189598,25.1263798 6.06614858,26.3712119 C6.01178609,26.3867538 5.9660206,26.4232189 5.93913027,26.4724178 C1.16986924,35.2772881 -0.760239918,45.3125191 0.407687797,55.232088 C0.469637209,55.917319 0.925657261,56.5059511 1.57896231,56.7439727 C2.23226735,56.9819944 2.96590807,56.8267969 3.46329759,56.3453525 L3.46534628,56.3342199 Z" transform="translate(0 2.733)"/><g fill="#E3EAFC" transform="translate(.922 31.677)"><path d="M2.80669488,1.99982787 C1.99203956,1.9986803 1.18092334,1.89391449 0.39334702,1.68811381 C0.164227171,1.6347346 0.0222863931,1.407951 0.0763134193,1.18157846 C0.130340445,0.955205915 0.35987634,0.814967105 0.588996189,0.86834631 L0.627921155,0.879478955 C0.662748756,0.887575424 4.10351084,1.83182613 5.90122965,0.161929382 C6.06811942,-0.00212077995 6.33801323,-0.00144107863 6.50405437,0.163447537 C6.67009552,0.328336153 6.66940763,0.594993741 6.50251793,0.759043977 L6.48510413,0.775236915 C5.46084445,1.63012316 4.14573653,2.06793994 2.80669488,1.99982787 Z" transform="translate(1.127 4.554)"/><path d="M2.75650217,2.02411727 C1.94117204,2.0219875 1.12946167,1.91689377 0.341105619,1.71139115 C0.116357076,1.65111887 -0.017790931,1.4237453 0.0398757373,1.2008229 C0.0975424056,0.977900493 0.325662319,0.842006276 0.552119906,0.895671893 L0.575679754,0.901744245 C0.611531696,0.911864831 4.05229378,1.85611554 5.85001259,0.186218789 C5.96108201,0.0831702773 6.11935732,0.046493852 6.26521773,0.0900051677 C6.41107814,0.133516483 6.52236398,0.250605136 6.55715497,0.397164964 C6.59194595,0.543724791 6.5449565,0.69748987 6.43388707,0.800538381 L6.43388707,0.800538381 C5.40917472,1.65382753 4.09490346,2.09112594 2.75650217,2.02411727 L2.75650217,2.02411727 Z" transform="translate(0 9.007)"/><path d="M2.72474759,1.96136964 C1.9097598,1.96015184 1.09831398,1.85538793 0.310375383,1.64965558 C0.163990638,1.6080746 0.0511779635,1.49249328 0.014432802,1.34644997 C-0.0223123595,1.20040667 0.0225924563,1.04608884 0.13223204,0.941626519 C0.241871623,0.837164196 0.399589114,0.79842769 0.545973859,0.840008668 C0.58080146,0.850129255 4.02156355,1.79437996 5.81825801,0.124483212 C5.9896736,-0.035095457 6.25956745,-0.0271659605 6.4210828,0.142194238 C6.58259816,0.311554437 6.57457242,0.578212077 6.40315683,0.737790746 C5.37853953,1.59195266 4.063596,2.02935292 2.72474759,1.96136964 L2.72474759,1.96136964 Z" transform="translate(2.97)"/></g><path fill="#EAA58B" d="M0.903468937,22.3968576 L5.65743644,27.02905 C6.23363415,27.5686693 6.37103138,28.423436 5.99239601,29.1128787 C1.18401217,37.9383969 -0.764743695,48.010124 0.40973648,57.9656584 C0.473784387,58.6498141 0.930602584,59.2364826 1.58349421,59.4730562 C2.23638584,59.7096297 2.96878934,59.5538725 3.46534628,59.0728505 C5.39315641,56.9900339 7.3206251,54.9068798 9.24775234,52.8233885 C11.8359211,50.0240343 14.4220412,47.2219813 17.0061126,44.4172294 C19.8182706,41.3635112 22.6242826,38.3047326 25.4241486,35.2408938 C28.0191463,32.397009 30.6062907,29.5450278 33.1855818,26.6849501 C35.1318301,24.5171205 37.0780784,22.3452426 38.9761826,20.1349066 C39.7300977,19.2564397 40.11525,18.6340236 40.8363862,17.7292432 C41.634348,16.7273051 40.0845198,15.7051259 39.4832315,15.223386 C38.238657,14.2356168 36.9828146,13.2610043 35.7269723,12.288416 C32.5218087,9.80178789 29.304353,7.32932864 26.0981651,4.84371263 C24.2236207,3.38533614 22.3378085,1.92695964 20.4888727,0.432149038 C19.7807317,-0.169611206 18.717212,-0.108275403 18.0847439,0.570801071 L0.76006117,20.0397731 C0.168476403,20.7389922 0.231367768,21.7726898 0.903468937,22.3968576 Z"/><path fill="#30242A" d="M3.46534628,56.3342199 C5.41159455,54.2291379 7.40086516,52.1655504 9.38808709,50.1009507 C12.0513742,47.3292595 14.7204659,44.5595923 17.3953622,41.7919493 C20.2942478,38.7800628 23.1832315,35.7570437 26.0623131,32.7228919 C28.7256002,29.9093689 31.3673762,27.0796529 33.9620324,24.2064185 C35.9174998,22.0396009 37.8678454,19.8545663 39.6676129,17.553145 C40.4584043,16.5410864 41.9457478,15.0068055 41.6210316,14.0453498 C41.321924,13.1577743 40.028181,12.3147295 39.1533936,11.6285537 C37.5072773,10.338179 35.8109683,9.11055184 34.1156836,7.88393678 C30.5837552,5.32241637 27.0149504,2.80441448 23.5721397,0.125495271 C23.4768307,0.0533769226 23.3407835,0.0690587801 23.2648373,0.160917323 C23.2577932,0.168675486 23.2516118,0.177157834 23.2463992,0.186218789 C20.4755562,4.8811588 23.5332147,10.5324942 21.3001509,15.3478692 C18.5713059,21.2441228 12.1118103,24.6800619 6.06819726,26.3712119 C6.01383477,26.3867538 5.96806928,26.4232189 5.94117895,26.4724178 C1.17191792,35.2772881 -0.758191235,45.3125191 0.40973648,55.232088 C0.471685891,55.917319 0.927705944,56.5059511 1.58101099,56.7439727 C2.23431603,56.9819944 2.96795676,56.8267969 3.46534628,56.3453525 L3.46534628,56.3342199 Z" transform="translate(0 2.733)"/><g fill="#E3EAFC" transform="translate(1.024 31.779)"><path d="M2.70630945,1.79437996 C1.90066053,1.79260763 1.0985604,1.68887066 0.319594454,1.48570208 C0.149876113,1.43763279 0.0517329604,1.2627308 0.100385557,1.09504748 C0.149038154,0.927364159 0.326062761,0.830397743 0.49578114,0.878466896 C0.531633082,0.887575424 4.02975828,1.84801907 5.87152375,0.136627916 C6.00044642,0.018877816 6.20136824,0.0259267346 6.32151308,0.152414844 C6.44165793,0.278902953 6.43603393,0.477462951 6.30891744,0.597114595 C5.30523429,1.433253 4.01741613,1.86123742 2.70630945,1.79437996 L2.70630945,1.79437996 Z" transform="translate(1.127 4.554)"/><path d="M2.65611673,1.81866937 C1.85012112,1.81605583 1.04774707,1.71198786 0.268377394,1.50897943 C0.0986590269,1.46063069 0.000745154409,1.28550212 0.0496806203,1.11781878 C0.0986160861,0.950135447 0.275870031,0.853395589 0.445588422,0.901744245 C0.480416022,0.910852773 3.97854122,1.87433259 5.82133103,0.161929382 C5.90458736,0.0845526045 6.02330038,0.0569376464 6.13275204,0.089486795 C6.24220371,0.122035944 6.32576572,0.209804209 6.35196106,0.319730135 C6.3781564,0.429656061 6.34300539,0.545039284 6.25974907,0.622416061 C5.25493644,1.45717875 3.96723649,1.88464059 2.65611673,1.81866937 L2.65611673,1.81866937 Z" transform="translate(0 9.007)"/><path d="M2.62436215,1.75592173 C1.81837625,1.7541469 1.01593775,1.6504107 0.236622817,1.44724385 C0.0669044101,1.39917462 -0.0312388096,1.22427258 0.0174138004,1.05658922 C0.0660664103,0.888905851 0.243091096,0.791939437 0.412809503,0.840008668 L0.412809503,0.840008668 C0.448661445,0.849117196 3.9457623,1.81158496 5.78855211,0.0991817464 C5.91725524,-0.0204323875 6.11973296,-0.0143153474 6.24079875,0.112844538 C6.36186455,0.240004423 6.35567327,0.440054292 6.22697015,0.559668426 C5.22272625,1.39472445 3.93521938,1.82224372 2.62436215,1.75592173 Z" transform="translate(2.97)"/></g><path fill="#E3EAFC" d="M6.81186897,16.8700054 C6.73703684,16.8702433 6.6645083,16.8444461 6.60700073,16.7971372 C-1.12575098,10.442421 0.0860446607,0.401787279 0.0993610963,0.300581415 C0.11473148,0.188674334 0.189360575,0.0933696078 0.29513632,0.0505676101 C0.400912065,0.00776561238 0.521764603,0.0239689861 0.612169947,0.0930740763 C0.702575291,0.162179167 0.748798714,0.273687264 0.733428298,0.38559434 C0.720111863,0.486800204 -0.442515398,10.183334 7.01571287,16.3133732 C7.11855283,16.3986361 7.15649715,16.5383104 7.11069135,16.6629922 C7.06488555,16.787674 6.94509547,16.870781 6.81084463,16.8710175 L6.81186897,16.8700054 Z" transform="translate(23.662 8.096)"/><path fill="#FFB7D5" d="M3.26047804,45.6063983 C5.20672631,43.5013164 7.19599692,41.4377288 9.18321885,39.3731292 C11.846506,36.6014379 14.5155977,33.8321082 17.190494,31.0651398 C20.0893796,28.0519039 22.9783632,25.0285474 25.8574449,21.9950703 C28.520732,19.1815473 31.162508,16.3518314 33.7571642,13.4785969 C35.7126316,11.3117794 37.6629772,9.12674478 39.4627447,6.82532344 C40.2535361,5.81326481 41.7408795,4.27898391 41.4161634,3.31752821 C41.1170557,2.42995279 39.8233128,1.58690794 38.9485254,0.900732186 C38.5879573,0.619379885 38.2191945,0.347136112 37.8535047,0.0708441045 C32.6293645,7.94870853 5.66255815,36.4209541 0.0163894592,42.252436 C0.0655578367,42.9922509 0.118823579,43.736114 0.20486824,44.4981941 C0.266817651,45.1834251 0.722837704,45.7720572 1.37614275,46.0100788 C2.02944779,46.2481005 2.76308852,46.092903 3.26047804,45.6114586 L3.26047804,45.6063983 Z" transform="translate(.205 13.46)"/><path fill="#CA7358" d="M16.5533538,10.4211678 C17.9874315,5.59466014 19.4645315,2.6718348 20.7746639,0.894659835 C20.5779903,0.737790746 20.3792682,0.582945775 20.1825946,0.425064627 C19.4744537,-0.176695617 18.410934,-0.115359814 17.7784658,0.56371666 L0.453783151,20.038761 C-0.134814387,20.7369153 -0.0724611633,21.7669249 0.596166578,22.3907853 L2.47173531,24.2175511 C9.30066795,22.3957603 14.6521523,17.1526748 16.5533538,10.4211678 L16.5533538,10.4211678 Z" transform="translate(.307)"/></g><path fill="#0958BD" d="M44.1286188,1.02420334 C32.4357641,12.4979121 20.1918137,23.0132013 8.49998327,34.4879222 C3.74806445,39.1514883 -0.605385649,45.2916481 0.173113663,52.5875788 C0.962880727,59.9928118 5.69636141,66.3718174 10.4779861,71.6689323 C23.7432046,86.3670599 42.2714883,103.987001 49.5156292,110.783987 C51.2789036,112.438557 54.0015207,112.571055 55.9208347,111.095701 L80.263279,92.427267 C81.5175431,91.4658991 82.2791047,90.0071502 82.344846,88.440087 C82.4105872,86.8730238 81.7738224,85.357011 80.6043846,84.2963879 L52.1215532,58.4291813 C51.7062595,58.0520992 51.4857218,57.5097631 51.5215243,56.9536181 C51.5573267,56.3974731 51.845633,55.8871136 52.3059346,55.5650553 C61.3150155,49.3105329 99.1459846,21.8048033 97.934189,1.77818702 C97.8607427,0.819540663 97.045944,0.0822991345 96.072961,0.0939812509 L45.4264591,0.490848439 C44.9398268,0.493763002 44.473795,0.685281445 44.1286188,1.02420334 Z"/><path fill="#3EC1F3" d="M41.6404941,98.724305 C41.5248788,98.724305 41.4141224,98.6783523 41.3331917,98.5967765 C41.1436886,98.4065095 22.2210336,79.3423609 7.36501322,64.6695348 C0.374908879,57.7622346 -0.402566091,51.7414978 0.178235369,47.9078197 C0.704404587,44.7632923 2.30088915,41.8903027 4.70377479,39.7637838 L48.4185598,0.136627916 C48.5860153,-0.0268633652 48.8559091,-0.0252774659 49.0213846,0.140170121 C49.18686,0.305617708 49.1852549,0.572275348 49.0177994,0.735766629 L48.9952639,0.75701986 L5.27945454,40.3872119 C3.02024335,42.3831858 1.51836958,45.0813498 1.02229252,48.0353391 C0.228428087,53.2575616 2.63153254,58.8026309 7.96732584,64.0744443 C22.8274436,78.7492946 41.7521473,97.8174913 41.9416504,98.0087704 C42.0619961,98.1302315 42.0966154,98.3112758 42.0294156,98.4677446 C41.9622157,98.6242133 41.8063796,98.7254111 41.634348,98.724305 L41.6404941,98.724305 Z" transform="translate(24.687 1.923)"/><path fill="#00ACB1" d="M0.791815747,25.1111989 L29.3627405,0.546511664 C30.2734407,-0.236374844 31.6539385,-0.142153494 32.4470318,0.75701986 L32.4593239,0.77220074 L35.9943254,4.82954381 C36.7842519,5.73786038 36.6974589,7.10271311 35.7986762,7.90620207 L7.53812688,32.9779307 C6.63974353,33.7755242 5.25704146,33.7025737 4.44973817,32.8149892 L4.39032638,32.7471813 L0.548022541,28.1807727 C-0.226772887,27.2615942 -0.118609715,25.8997235 0.791815747,25.1111989 L0.791815747,25.1111989 Z" transform="translate(50.09 84.81)"/><path fill="#4856DF" d="M0.442515398,24.8733651 C0.265694716,24.8726164 0.107619747,24.7643056 0.0449363541,24.6009493 C-0.0177470386,24.4375931 0.027920934,24.2529652 0.159797227,24.1365864 L27.4892204,0.141688209 C27.6018488,0.0328763561 27.7659505,-0.0058587238 27.9161978,0.0409031482 C28.066445,0.0876650201 28.1784484,0.212333077 28.2076202,0.36527779 C28.2367919,0.518222503 28.1783967,0.674616644 28.0556811,0.77220074 L0.722160545,24.767099 C0.645087664,24.8348783 0.545694474,24.872648 0.442515398,24.8733651 Z" transform="translate(54.802 89.365)"/><path fill="#3EC1F3" d="M0.496805481,28.6432847 C0.319114397,28.6436976 0.159815613,28.5351287 0.0970991456,28.3708666 C0.0343826786,28.2066044 0.08141533,28.0211346 0.215111652,27.9054928 L2.53217144,25.9016167 C2.64287491,25.7982066 2.80100729,25.7610032 2.94700165,25.8040206 C3.09299601,25.847038 3.20467233,25.9637408 3.23996323,26.1101683 C3.27525413,26.2565958 3.22879807,26.4105021 3.11809461,26.5139122 L3.09351042,26.5351654 L0.776450629,28.5390415 C0.699079776,28.6060872 0.599718675,28.6431256 0.496805481,28.6432847 L0.496805481,28.6432847 Z M5.8080146,23.6103159 C5.63282625,23.6107443 5.47522328,23.5051939 5.41074529,23.3442553 C5.34626729,23.1833167 5.38805418,22.9997874 5.51607736,22.8816337 L8.25106836,20.3514871 C8.35632798,20.2385513 8.51546348,20.1911778 8.66635111,20.2278605 C8.81723874,20.2645433 8.93595444,20.3794659 8.97615365,20.5277647 C9.01635286,20.6760635 8.97166178,20.8342248 8.85952703,20.9405052 C8.85107172,20.9500277 8.84181998,20.95883 8.83186982,20.9668188 L6.09790316,23.4969654 C6.0191714,23.5695972 5.91572728,23.6104064 5.8080146,23.611328 L5.8080146,23.6103159 Z M11.1345888,18.7321933 C10.9601102,18.7311647 10.8038047,18.6253928 10.7397819,18.4650278 C10.6757591,18.3046627 10.7168912,18.1219465 10.8436759,18.0035111 L13.5776426,15.4733645 C13.7476904,15.323621 14.0067493,15.3320588 14.166446,15.4925423 C14.3261427,15.6530259 14.3302837,15.9090849 14.1758579,16.0745273 L14.1604927,16.0886961 L11.4255017,18.6188427 C11.3461986,18.6909732 11.2423795,18.7310639 11.1345888,18.7311812 L11.1345888,18.7321933 Z M17.2335163,13.6081411 C17.0602774,13.6084348 16.9041008,13.5050779 16.8384455,13.3466842 C16.7727902,13.1882906 16.8107256,13.0063907 16.9344087,12.8865426 L19.5116512,10.3796734 C19.6815,10.2312083 19.9392832,10.2401843 20.098132,10.4000948 C20.2569809,10.5600053 20.2612382,10.8148209 20.1078177,10.9798241 L17.5305753,13.4877054 C17.4511772,13.5644932 17.3446208,13.6076937 17.2335163,13.6081411 L17.2335163,13.6081411 Z M22.5447254,8.57517386 C22.3716731,8.5750557 22.2158778,8.47154838 22.1504857,8.3132478 C22.0850937,8.15494722 22.1230927,7.97329411 22.2466422,7.85357502 L24.8238846,5.34670578 C24.9252501,5.23126991 25.081969,5.17916926 25.2333459,5.2105818 C25.3847228,5.24199434 25.5069841,5.35198677 25.5527793,5.49796027 C25.5985745,5.64393377 25.5607116,5.80296332 25.4538545,5.91345861 C25.4433528,5.92500808 25.4320583,5.93582899 25.4200512,5.94584449 L22.8428087,8.45574991 C22.7626784,8.53256434 22.6553494,8.57541695 22.5437011,8.57517386 L22.5447254,8.57517386 Z M28.0136831,3.520952 C27.8392508,3.52091145 27.6824566,3.41583998 27.6179076,3.25573348 C27.5533586,3.09562699 27.5940904,2.91281872 27.7207215,2.7942939 L30.5888769,0.0951335118 C30.761496,-0.0427343049 31.0122263,-0.0270019945 31.165806,0.131333467 C31.3193857,0.289668929 31.32463,0.537837839 31.1778731,0.702368694 L28.3035717,3.39748084 C28.2254272,3.47465507 28.1200556,3.51891007 28.0095857,3.520952 L28.0136831,3.520952 Z" transform="translate(37.593 9.007)"/><g fill="#383979" transform="translate(27.452 5.465)"><path d="M46.2910031,7.95984118 L28.4674663,21.6297172 C26.5481522,23.1050714 23.8255351,22.9725732 22.0622607,21.3180031 C17.6719344,17.1969003 9.13302613,9.09334685 0.133164356,0.0860249841 C0.121896603,0.472631383 0.111653191,0.864298075 0.100385437,1.25292859 C8.86977044,10.0183684 17.1310822,17.8506902 21.4763376,21.9302986 C22.5470967,22.9379728 23.9699764,23.4987776 25.4487327,23.4959639 C26.7311342,23.493806 27.9767078,23.0720864 28.9909046,22.2966638 L46.2541268,9.05691274 C46.2653946,8.68852339 46.278711,8.32519434 46.2910031,7.95984118 Z" transform="translate(0 84)"/><path d="M1.37261721,50.7901627 C10.8488285,44.2131399 19.7942701,36.9196115 28.1284093,28.9752388 C39.5180591,17.8800399 45.882291,8.21791613 47.1391576,0.168001734 C47.0766728,0.15585703 47.017261,0.13359174 46.9517032,0.125495271 L46.3084169,0.0414944041 C43.2292473,19.6045878 9.34096739,44.2289865 0.878884749,50.1039869 C0.416282476,50.4241984 0.126102521,50.9348245 0.0902363597,51.4917619 C0.0543701987,52.0486993 0.276707765,52.5915442 0.694503333,52.9671008 L23.0702125,73.28519 C23.0876263,72.9168006 23.1050401,72.5534716 23.1234782,72.1901425 L1.27632913,52.3436727 C1.05140516,52.1387613 0.932256439,51.8443959 0.952145812,51.5427549 C0.972035184,51.2411138 1.12883204,50.9645098 1.37876325,50.7901627 L1.37261721,50.7901627 Z" transform="translate(23.97)"/></g></g></g><g transform="translate(1.56 81.774)"><path fill="#DD4926" d="M23.1101618,0.863286017 C21.9075852,-1.19220507 16.2194185,1.12642126 9.77528806,4.80221823 C3.33115758,8.4780152 -0.918834055,13.1243764 0.28169383,15.1808795 C1.48222171,17.2373827 7.68153465,15.9227185 14.1256651,12.2459095 C20.5697956,8.56910047 24.3106897,2.91978917 23.1101618,0.863286017 Z" transform="translate(51.5 14.675)"/><path fill="#EAA58B" d="M14.194296,0.0242894073 L20.538041,16.6341957 C20.538041,16.6341957 16.2562948,30.2676376 0.0778499311,29.9538995 C0.0778499311,29.9538995 1.81922997,17.7312673 0.711917133,10.6792427 L14.194296,0.0242894073 Z" transform="translate(52.524)"/><path fill="#FF7235" d="M31.6019503,0.383570223 C30.3358646,3.18899676 26.0705079,11.9392557 10.465694,13.135509 C10.1536936,13.1559891 9.88487352,13.3600792 9.78450713,13.652671 C8.40676822,17.7727617 -1.20462525,47.6254553 0.235598476,74.3357068 C0.256668049,74.7224111 0.522921251,75.0536726 0.899371573,75.1615467 C6.09278145,76.6401644 42.2100278,86.5512546 56.696261,80.5406383 C56.8513489,80.4773688 56.9852079,80.3721269 57.0824376,80.2370208 C58.9877123,77.583403 77.5620912,50.2446631 54.1651139,23.353253 L32.6959467,0.212532314 C32.5453097,0.0497162947 32.321824,-0.0272209779 32.1013978,0.00785270918 C31.8809716,0.0429263963 31.6932337,0.185296595 31.6019503,0.386606399 L31.6019503,0.383570223 Z" transform="translate(41.666 15.08)"/><path fill="#A15842" d="M1.96058905,25.6789904 C1.74984873,25.6812885 1.56904351,25.5310563 1.535227,25.3255279 C1.50141049,25.1199995 1.6247418,24.9209193 1.82537602,24.8571722 C3.80337887,24.2074305 4.17111736,19.728059 2.86200931,12.2459095 C2.14199852,8.30286109 1.21889217,4.3986643 0.0962880727,0.548535781 C0.029249302,0.324957961 0.158348911,0.0900183072 0.38464012,0.023783378 C0.610931329,-0.0424515513 0.848722261,0.0851000638 0.915761032,0.308677884 C1.63279987,2.70624479 7.78806613,23.7884382 2.09887512,25.6566985 C2.05429882,25.6714483 2.0075988,25.6789904 1.96058905,25.6789904 Z" transform="translate(75.06 40.685)"/><g transform="translate(0 32.183)"><path fill="#0958BD" d="M14.4921764,-2.91305792 C15.6373642,-2.906304 16.5640597,-1.97962198 16.5708302,-0.834434238 L16.7689441,32.6750456 C16.7756122,33.802908 15.8667047,34.7226267 14.7388423,34.7292948 C14.7308031,34.7293424 14.7227637,34.7293424 14.7147245,34.729295 C13.5695367,34.7225411 12.6428412,33.7958591 12.6360706,32.6506713 L12.4379568,-0.858808506 C12.4312886,-1.98667092 13.3401962,-2.90638963 14.4680586,-2.91305775 C14.4760978,-2.91310528 14.4841372,-2.91310533 14.4921764,-2.91305792 Z" transform="rotate(-39.12 14.603 15.908)"/><path fill="#EAA58B" d="M85.0797313,17.1513577 C84.957648,16.9706243 84.7840384,16.8297389 84.5808771,16.7465343 C82.7145275,15.983442 72.0931336,13.6557072 51.1033581,14.7709958 C45.3055869,15.0746134 39.2886067,15.3934119 33.5318091,14.4430888 C28.6825779,13.6415384 25.5603859,10.0730196 21.795932,7.28378601 C19.4399473,5.53596074 13.9023588,0.744875156 10.6531485,2.48257984 C7.89971933,3.95816133 18.5590138,10.9636312 17.1771776,12.5768527 C16.3505342,13.5433687 11.6457351,10.9292212 6.0118585,3.8731484 C4.60236501,2.10406991 3.95498137,0.597114595 2.73396666,0.218604665 C1.94727262,-0.0253014659 1.18004106,-0.202411727 0.866592654,0.555620191 C-0.765501342,4.8140477 0.0699008162,9.61213145 3.04843941,13.0869302 C7.40803555,18.382021 13.8224601,21.9798895 18.4432633,22.3735803 C28.7071621,23.2459748 35.4155726,24.6750016 48.1020384,29.2687358 C60.4269117,33.7278661 90.2106564,39.9176167 94.9676969,32.6955663 C95.2075755,32.3198338 95.1966838,31.8387703 94.9400397,31.4740115 L85.0797313,17.1513577 Z" transform="translate(9.81 16.294)"/></g><path fill="#CA7358" d="M60.6850456,5.05725701 C44.5905967,12.8905909 29.5676087,7.04797634 17.4875529,2.71940156 C5.35525579,-1.63245058 0.120872261,0.721597808 0.120872261,0.721597808 L0.0266328712,0.899720128 C5.42641482,2.25373856 10.7406987,3.92113076 15.9418221,5.89321744 C28.2666954,10.3533599 58.0494157,16.5420984 62.8064563,9.32106004 C63.0463661,8.94545411 63.0358813,8.46455566 62.7798234,8.09950527 L60.6850456,5.05725701 Z" transform="translate(41.974 71.856)"/><path fill="#FFA21D" d="M33.0216872,1.00699834 C32.9667339,1.44615213 32.5708352,1.76422342 32.1244854,1.72782456 C31.6781356,1.69142569 31.3403777,1.31352628 31.3590447,0.871413432 C31.3777117,0.429300578 31.7461522,0.0805076912 32.1940195,0.0809642423 C32.6803673,0.112937776 33.049748,0.526218379 33.0216872,1.00699834 Z M28.4316143,2.0919252 C28.2415788,2.06795577 28.0556633,2.15954937 27.9606883,2.3239328 C27.8657132,2.48831624 27.8804167,2.69305751 27.9979323,2.84254471 C28.115448,2.9920319 28.3125906,3.05677197 28.4972967,3.00653201 C28.6820029,2.95629206 28.817831,2.80098416 28.8413508,2.6131354 C28.8423674,2.5939194 28.8423674,2.57466406 28.8413508,2.55544806 C28.8571972,2.31547553 28.6743466,2.10771868 28.4316143,2.08990108 L28.4316143,2.0919252 Z M25.7683272,4.20813981 C25.6732612,4.19612385 25.5802476,4.2419525 25.5327626,4.32420468 C25.4852775,4.40645686 25.4927002,4.50888622 25.5515612,4.58361558 C25.6104221,4.65834495 25.7090951,4.69061387 25.8014588,4.6653393 C25.8938226,4.64006474 25.9616334,4.56223891 25.9731954,4.46823888 C25.9737067,4.45879975 25.9737067,4.44934037 25.9731954,4.43990124 C25.9765472,4.38163292 25.9562867,4.32444282 25.9168874,4.28095872 C25.8774882,4.23747462 25.8221909,4.21127319 25.7632055,4.20813981 L25.7683272,4.20813981 Z M36.1264654,9.38785591 C35.7341861,9.33726095 35.3512586,9.53225843 35.1653575,9.87727918 C34.9794564,10.2222999 35.0295369,10.6450455 35.2910544,10.9383263 C35.5525718,11.2316071 35.9707257,11.3339667 36.3405768,11.1952382 C36.710428,11.0565097 36.9544748,10.7057634 36.9531087,10.3149016 C36.9807559,9.83724919 36.6164482,9.42556847 36.1336358,9.38886797 L36.1264654,9.38785591 Z M40.8845303,13.2944022 C40.8285343,13.7324331 40.4329819,14.0489736 39.987673,14.0121116 C39.5423641,13.9752495 39.2056372,13.5980919 39.2241942,13.1569619 C39.2427511,12.7158319 39.6099935,12.3675822 40.0568626,12.3673565 C40.5445928,12.3982711 40.9156326,12.8123244 40.8876033,13.2944022 L40.8845303,13.2944022 Z M23.2371801,14.3884376 C23.181698,14.8268132 22.7861004,15.1439088 22.3404968,15.1071838 C21.8948933,15.0704589 21.5579369,14.692989 21.576733,14.25159 C21.5955292,13.810191 21.9633857,13.4620188 22.4105367,13.4624037 C22.8977463,13.4948912 23.267013,13.9099124 23.2371801,14.3914738 L23.2371801,14.3884376 Z M50.6762078,29.0450708 C50.6201952,29.4832312 50.2244355,29.799805 49.7790102,29.7627518 C49.3335849,29.7256986 48.9969721,29.3482016 49.0159004,28.9069562 C49.0348286,28.4657109 49.4025632,28.1177082 49.8495644,28.1180249 C50.3348166,28.1510609 50.7031355,28.5632132 50.6762078,29.0430467 L50.6762078,29.0450708 Z M49.0065316,38.1394297 C48.9510474,38.5783693 48.5549857,38.8959189 48.1088136,38.8591913 C47.6626416,38.8224636 47.3252276,38.4445364 47.3440272,38.002577 C47.3628269,37.5606176 47.7311462,37.2119946 48.1788639,37.2123837 C48.6645246,37.244893 49.0334417,37.6572038 49.0065316,38.1374056 L49.0065316,38.1394297 Z M59.1567286,29.1260355 C59.1017753,29.5651893 58.7058766,29.8832606 58.2595267,29.8468617 C57.8131769,29.8104628 57.4754191,29.4325634 57.4940861,28.9904506 C57.5127531,28.5483377 57.8811935,28.1995448 58.3290609,28.2000014 C58.8157086,28.2325092 59.1852444,28.6459035 59.1577529,29.1270476 L59.1567286,29.1260355 Z M58.60256,45.3452872 C58.5449889,45.7831025 58.1486976,46.0984978 57.7034731,46.060841 C57.2582486,46.0231843 56.9219804,45.6458297 56.9405638,45.2047168 C56.9591471,44.7636039 57.3259918,44.4151642 57.7728436,44.4141933 C58.2591914,44.4461663 58.6285721,44.8594469 58.6005113,45.3402269 L58.60256,45.3452872 Z M13.7958273,35.9432625 C13.740343,36.3822021 13.3442813,36.6997517 12.8981093,36.663024 C12.4519372,36.6262964 12.1145232,36.2483691 12.1333229,35.8064098 C12.1521225,35.3644504 12.5204418,35.0158274 12.9681596,35.0162164 C13.4543987,35.0492514 13.8233359,35.4624869 13.7958273,35.9432625 L13.7958273,35.9432625 Z M30.7671122,39.3903342 C30.7121589,39.829488 30.3162602,40.1475593 29.8699104,40.1111604 C29.4235606,40.0747615 29.0858027,39.6968621 29.1044697,39.2547493 C29.1231367,38.8126364 29.4915772,38.4638435 29.9394446,38.4643001 C30.4255268,38.4968067 30.7946048,38.9097485 30.7671122,39.3903342 L30.7671122,39.3903342 Z M25.8635909,31.9496791 C25.8086376,32.3888329 25.4127389,32.7069042 24.9663891,32.6705053 C24.5200393,32.6341064 24.1822814,32.256207 24.2009484,31.8140942 C24.2196154,31.3719813 24.5880559,31.0231884 25.0359232,31.023645 C25.522271,31.0556185 25.8916517,31.4688991 25.8635909,31.9496791 L25.8635909,31.9496791 Z M16.4396519,23.2459748 C16.3846986,23.6851286 15.9887999,24.0031999 15.5424501,23.966801 C15.0961002,23.9304022 14.7583424,23.5525028 14.7770094,23.1103899 C14.7956764,22.6682771 15.1641168,22.3194842 15.6119842,22.3199407 C16.0962624,22.3535017 16.4635259,22.7650433 16.4365789,23.2439507 L16.4396519,23.2459748 Z M7.74094644,25.8935202 C7.68599312,26.332674 7.29009443,26.6507453 6.8437446,26.6143464 C6.39739477,26.5779476 6.05963692,26.2000482 6.07830393,25.7579353 C6.09697094,25.3158224 6.46541137,24.9670296 6.91327875,24.9674861 C7.39923202,25.0005121 7.7675754,25.4141062 7.73889776,25.8945323 L7.74094644,25.8935202 Z M4.33091459,63.0978077 C4.27544906,63.5360537 3.88005871,63.8531159 3.43457171,63.8165822 C2.9890847,63.7800484 2.65201428,63.4029182 2.67043907,62.9616345 C2.68886386,62.5203509 3.05622793,62.1719316 3.5032469,62.1717741 C3.98975142,62.2042768 4.35899048,62.6178504 4.33091459,63.0988198 L4.33091459,63.0978077 Z M19.5055051,69.8644318 C19.4494925,70.3025922 19.0537328,70.619166 18.6083075,70.5821128 C18.1628822,70.5450596 17.8262695,70.1675626 17.8451977,69.7263172 C17.8641259,69.2850719 18.2318606,68.9370692 18.6788618,68.9373859 C19.1646923,68.9709471 19.5330315,69.3840241 19.5055051,69.8644318 Z M26.6431146,68.453622 C26.5876325,68.8919976 26.1920348,69.2090932 25.7464313,69.1723682 C25.3008277,69.1356433 24.9638714,68.7581734 24.9826675,68.3167744 C25.0014637,67.8753754 25.3693202,67.5272032 25.8164712,67.5275881 C26.3024245,67.5606139 26.6707679,67.9742081 26.6420902,68.4546341 L26.6431146,68.453622 Z M16.5943274,58.9635482 C16.5393741,59.402702 16.1434754,59.7207733 15.6971256,59.6843744 C15.2507757,59.6479756 14.9130179,59.2700762 14.9316849,58.8279633 C14.9503519,58.3858505 15.3187924,58.0370576 15.7666597,58.0375141 C16.2530217,58.070012 16.6219644,58.4837657 16.5933031,58.9645603 L16.5943274,58.9635482 Z M1.66250577,55.3687159 C1.60704024,55.8069619 1.21164989,56.1240241 0.766162883,56.0874904 C0.320675874,56.0509566 -0.0163945382,55.6738264 0.00203024831,55.2325427 C0.0204550348,54.7912591 0.38781911,54.4428398 0.834838077,54.4426823 C1.32120009,54.4751797 1.69014274,54.8889334 1.66148142,55.369728 L1.66250577,55.3687159 Z M38.3636266,67.0772223 C38.3081423,67.5161619 37.9120806,67.8337115 37.4659086,67.7969839 C37.0197365,67.7602562 36.6823225,67.382329 36.7011222,66.9403696 C36.7199218,66.4984102 37.0882411,66.1497872 37.5359589,66.1501763 C38.0244443,66.1826435 38.3941997,66.5995721 38.3626022,67.0822826 L38.3636266,67.0772223 Z M52.8498598,72.7042683 C52.7938639,73.1422992 52.3983114,73.4588397 51.9530025,73.4219777 C51.5076936,73.3851156 51.1709668,73.007958 51.1895237,72.566828 C51.2080807,72.125698 51.5753231,71.7774482 52.0221921,71.7772226 C52.5101389,71.8107643 52.8792838,72.2270045 52.8488355,72.7093286 L52.8498598,72.7042683 Z M56.4114942,66.3799139 C56.3560121,66.8182894 55.9604144,67.135385 55.5148109,67.0986601 C55.0692073,67.0619352 54.7322509,66.6844653 54.7510471,66.2430663 C54.7698433,65.8016672 55.1376998,65.4534951 55.5848508,65.4538799 C56.0725013,65.4868845 56.4414927,65.9030156 56.4104698,66.3849742 L56.4114942,66.3799139 Z M3.76957561,41.026833 C3.71409354,41.4652085 3.31849587,41.7823041 2.87289232,41.7455792 C2.42728878,41.7088543 2.09033239,41.3313844 2.10912856,40.8899854 C2.12792473,40.4485863 2.49578125,40.1004142 2.94293226,40.100799 C3.43085251,40.1332651 3.80015002,40.5497413 3.76855127,41.0318933 L3.76957561,41.026833 Z M10.1901462,11.4241179 C10.1341337,11.8622783 9.73837396,12.1788521 9.29294864,12.1417989 C8.84752333,12.1047457 8.5109106,11.7272487 8.52983881,11.2860033 C8.54876702,10.844758 8.9165017,10.4967553 9.3635029,10.497072 C9.85102519,10.530619 10.2200083,10.946225 10.1901462,11.4281661 L10.1901462,11.4241179 Z M37.9006244,28.4904627 C37.845671,28.9296165 37.4497723,29.2476878 37.0034225,29.2112889 C36.5570727,29.17489 36.2193148,28.7969906 36.2379818,28.3548778 C36.2566489,27.9127649 36.6250893,27.563972 37.0729567,27.5644286 C37.5605909,27.5969101 37.9300201,28.0125663 37.8996,28.4945109 L37.9006244,28.4904627 Z M40.3682623,18.0945964 C40.3127781,18.533536 39.9167164,18.8510856 39.4705443,18.8143579 C39.0243722,18.7776303 38.6869583,18.399703 38.7057579,17.9577437 C38.7245576,17.5157843 39.0928768,17.1671612 39.5405946,17.1675503 C40.0286541,17.200025 40.3982463,17.616317 40.367238,18.0986446 L40.3682623,18.0945964 Z M33.3371843,5.08255847 C33.3085803,5.3018723 33.1098109,5.45974308 32.8868747,5.4402129 C32.6639385,5.42068272 32.496385,5.23072047 32.5072841,5.00985561 C32.5181833,4.78899075 32.703646,4.61603377 32.9274478,4.61802356 C33.1711894,4.63635669 33.3542236,4.84567841 33.3371843,5.08660671 L33.3371843,5.08660671 L33.3371843,5.08255847 Z M51.0511167,21.4404622 C51.0235743,21.6602071 50.8251274,21.8191233 50.6018325,21.8002489 C50.3785376,21.7813745 50.210296,21.5914633 50.2209332,21.3702895 C50.2315703,21.1491156 50.4172799,20.9758216 50.6413802,20.9779514 C50.8845388,20.9957633 51.0675511,21.2041559 51.0511167,21.4445104 L51.0511167,21.4404622 Z M61.4993969,38.2021773 C61.4713233,38.4217075 61.2727144,38.5801011 61.0495984,38.5608984 C60.8264824,38.5416956 60.658585,38.3517583 60.6693537,38.1307388 C60.6801224,37.9097192 60.8657092,37.7365941 61.0896604,37.7386545 C61.3332466,37.7564594 61.5164213,37.9654893 61.4993969,38.2062256 L61.4993969,38.2062256 L61.4993969,38.2021773 Z M52.7924967,41.4205238 C52.7649543,41.6402687 52.5665075,41.7991849 52.3432125,41.7803105 C52.1199176,41.7614361 51.951676,41.5715249 51.9623132,41.3503511 C51.9729504,41.1291772 52.15866,40.9558832 52.3827602,40.958013 C52.6256483,40.9763569 52.8083599,41.1844071 52.7924967,41.424572 L52.7924967,41.4205238 Z M28.169383,7.2594966 C28.1535714,7.366054 28.0560772,7.44171997 27.94755,7.43166279 C27.8390229,7.42160561 27.7574701,7.32934742 27.7619894,7.22174356 C27.7665087,7.11413971 27.8555173,7.02887423 27.9645147,7.02773517 C28.0863273,7.03742972 28.1776257,7.14206593 28.169383,7.26253277 L28.169383,7.26253277 L28.169383,7.2594966 Z M20.7152521,7.17549573 C20.6994405,7.28205313 20.6019463,7.3577191 20.4934191,7.34766192 C20.384892,7.33760474 20.3033392,7.24534655 20.3078585,7.1377427 C20.3123778,7.03013884 20.4013864,6.94487336 20.5103838,6.9437343 C20.6321964,6.95342885 20.7234948,7.05806507 20.7152521,7.17853191 L20.7152521,7.17853191 L20.7152521,7.17549573 Z M22.2210336,9.52853206 C22.205222,9.63508946 22.1077278,9.71075543 21.9992007,9.70069825 C21.8906735,9.69064107 21.8091208,9.59838288 21.8136401,9.49077903 C21.8181594,9.38317517 21.907168,9.29790969 22.0161654,9.29677063 C22.0747166,9.30091621 22.1292006,9.32788017 22.1676239,9.371727 C22.2060472,9.41557382 22.2252603,9.47270926 22.2210336,9.53055618 L22.2210336,9.53055618 L22.2210336,9.52853206 Z M45.6856175,18.8526283 C45.6703303,18.9594126 45.5729862,19.0356011 45.4642758,19.0258662 C45.3555653,19.0161314 45.273672,18.9238924 45.2780661,18.8161326 C45.2824602,18.7083728 45.3715985,18.6229418 45.4807492,18.6218789 C45.6024063,18.6310485 45.6938426,18.7353911 45.6856175,18.8556645 L45.6856175,18.8556645 L45.6856175,18.8526283 Z M42.3052915,29.2768322 C42.2894799,29.3833896 42.1919857,29.4590556 42.0834586,29.4489984 C41.9749314,29.4389412 41.8933787,29.3466831 41.897898,29.2390792 C41.9024173,29.1314753 41.9914259,29.0462099 42.1004233,29.0450708 C42.1591656,29.0492098 42.2138142,29.0763158 42.2522668,29.120386 C42.2907194,29.1644562 42.309803,29.221854 42.3052915,29.2798684 L42.3052915,29.2798684 L42.3052915,29.2768322 Z M43.9708703,34.1347137 C43.9545358,34.2410409 43.856895,34.3161839 43.7485528,34.3058061 C43.6402106,34.2954283 43.5589978,34.2031535 43.5636401,34.0957063 C43.5682824,33.9882592 43.6571589,33.903158 43.7660021,33.9019402 C43.8880871,33.9111031 43.9796854,34.016083 43.9708703,34.1367378 L43.9708703,34.1367378 L43.9708703,34.1347137 Z M33.7090202,33.898904 C33.6932086,34.0054614 33.5957144,34.0811274 33.4871872,34.0710702 C33.3786601,34.061013 33.2971073,33.9687548 33.3016266,33.861151 C33.3061459,33.7535471 33.3951545,33.6682817 33.5041519,33.6671426 C33.626237,33.6763055 33.7178353,33.7812854 33.7090202,33.9019402 L33.7090202,33.9019402 L33.7090202,33.898904 Z M40.367238,37.6566777 C40.3514264,37.7632351 40.2539322,37.8389011 40.145405,37.8288439 C40.0368779,37.8187868 39.9553251,37.7265286 39.9598444,37.6189247 C39.9643637,37.5113209 40.0533723,37.4260554 40.1623697,37.4249163 C40.2841823,37.4346109 40.3754807,37.5392471 40.367238,37.6597139 L40.367238,37.6597139 L40.367238,37.6566777 Z M28.391665,64.5379672 C28.3758534,64.6445246 28.2783592,64.7201906 28.1698321,64.7101334 C28.0613049,64.7000762 27.9797522,64.607818 27.9842715,64.5002141 C27.9887908,64.3926103 28.0777994,64.3073448 28.1867968,64.3062058 C28.3088818,64.3153686 28.4004801,64.4203486 28.391665,64.5410034 L28.391665,64.5410034 L28.391665,64.5379672 Z M19.8271482,60.4573468 C19.8113366,60.5639042 19.7138424,60.6395701 19.6053153,60.629513 C19.4967881,60.6194558 19.4152354,60.5271976 19.4197547,60.4195937 C19.424274,60.3119899 19.5132826,60.2267244 19.62228,60.2255853 C19.6808312,60.2297309 19.7353152,60.2566949 19.7737385,60.3005417 C19.8121619,60.3443885 19.8313749,60.401524 19.8271482,60.4593709 L19.8271482,60.4593709 L19.8271482,60.4573468 Z M20.8576355,66.3363954 C20.8423483,66.4431797 20.7450042,66.5193682 20.6362938,66.5096333 C20.5275833,66.4998985 20.44569,66.4076595 20.4500841,66.2998997 C20.4544783,66.1921399 20.5436165,66.1067089 20.6527673,66.105646 C20.7750074,66.1153357 20.8664663,66.2206078 20.8576355,66.3414557 L20.8576355,66.3363954 Z M14.6419331,68.0568951 C14.6255986,68.1632222 14.5279578,68.2383652 14.4196156,68.2279875 C14.3112734,68.2176097 14.2300606,68.1253348 14.2347029,68.0178877 C14.2393452,67.9104406 14.3282217,67.8253394 14.4370649,67.8241216 C14.5586082,67.8343385 14.6496132,67.9386385 14.6419331,68.0589192 L14.6419331,68.0589192 L14.6419331,68.0568951 Z M16.1477147,72.4441693 C16.1319031,72.5507267 16.0344089,72.6263926 15.9258817,72.6163354 C15.8173545,72.6062783 15.7358018,72.5140201 15.7403211,72.4064162 C15.7448404,72.2988124 15.833849,72.2135469 15.9428464,72.2124078 C16.0649315,72.2215707 16.1565298,72.3265507 16.1477147,72.4472054 L16.1477147,72.4472054 L16.1477147,72.4441693 Z M10.8344569,70.4099314 C10.8253078,70.4822461 10.7778061,70.5442453 10.7098451,70.5725744 C10.6418841,70.6009034 10.5637888,70.5912586 10.5049769,70.5472729 C10.4461649,70.5032872 10.4155713,70.4316432 10.4247204,70.3593285 C10.4362576,70.2563141 10.5246896,70.1785533 10.6295886,70.1791782 C10.6895711,70.1812662 10.7461793,70.2071191 10.7866486,70.2509113 C10.827118,70.2947034 10.8480412,70.3527475 10.8447003,70.4119555 L10.8344569,70.4099314 Z M15.068059,62.7354908 C15.0517245,62.8418179 14.9540837,62.9169609 14.8457415,62.9065831 C14.7373993,62.8962054 14.6561865,62.8039305 14.6608288,62.6964834 C14.6654712,62.5890363 14.7543476,62.5039351 14.8631908,62.5027173 C14.9848479,62.5118869 15.0762842,62.6162294 15.068059,62.7365028 L15.068059,62.7365028 L15.068059,62.7354908 Z M10.5169111,61.4005854 C10.5005766,61.5069126 10.4029357,61.5820556 10.2945935,61.5716778 C10.1862513,61.5613 10.1050386,61.4690252 10.1096809,61.3615781 C10.1143232,61.2541309 10.2031997,61.1690297 10.3120428,61.1678119 C10.4320124,61.1769823 10.5228147,61.2788072 10.5169111,61.3975492 L10.5169111,61.4005854 Z M21.015384,42.2038572 C20.9995724,42.3104146 20.9020782,42.3860806 20.7935511,42.3760234 C20.6850239,42.3659662 20.6034712,42.273708 20.6079905,42.1661042 C20.6125098,42.0585003 20.7015184,41.9732348 20.8105158,41.9720958 C20.9317474,41.9812694 21.0230231,42.0849779 21.015384,42.2048693 L21.015384,42.2038572 Z M6.94913069,64.2211928 C6.93279619,64.32752 6.83515535,64.402663 6.72681315,64.3922852 C6.61847095,64.3819074 6.53725816,64.2896326 6.54190049,64.1821855 C6.54654282,64.0747383 6.63541926,63.9896372 6.74426245,63.9884193 C6.80281362,63.9925649 6.85729762,64.0195289 6.89572096,64.0633757 C6.9341443,64.1072225 6.95335732,64.164358 6.94913069,64.2222049 L6.94913069,64.2211928 Z M1.87454439,69.2349313 C1.85925725,69.3417156 1.76191312,69.4179041 1.65320268,69.4081693 C1.54449225,69.3984344 1.46259889,69.3061954 1.46699303,69.1984356 C1.47138717,69.0906759 1.56052541,69.0052448 1.66967615,69.0041819 C1.79075169,69.0128294 1.8821663,69.1162441 1.87454439,69.2359434 L1.87454439,69.2349313 Z M0.952637315,59.908811 C0.93630281,60.0151382 0.838661972,60.0902811 0.730319771,60.0799034 C0.621977569,60.0695256 0.540764785,59.9772508 0.545407113,59.8698036 C0.55004944,59.7623565 0.638925878,59.6772553 0.747769075,59.6760375 C0.869426177,59.6852071 0.960862458,59.7895497 0.952637315,59.909823 L0.952637315,59.908811 Z M10.3407244,57.2470968 C10.3249128,57.3536542 10.2274186,57.4293201 10.1188914,57.419263 C10.0103643,57.4092058 9.92881158,57.3169476 9.93333087,57.2093437 C9.93785017,57.1017399 10.0268588,57.0164744 10.1358562,57.0153353 C10.2570877,57.024509 10.3483634,57.1282174 10.3407244,57.2481088 L10.3407244,57.2470968 Z M38.0665676,71.2752415 C38.050756,71.3817989 37.9532618,71.4574649 37.8447347,71.4474077 C37.7362075,71.4373505 37.6546548,71.3450923 37.6591741,71.2374885 C37.6636934,71.1298846 37.752702,71.0446192 37.8616994,71.0434801 C37.982931,71.0526538 38.0742067,71.1563622 38.0665676,71.2762536 L38.0665676,71.2752415 Z M34.8624284,74.959135 C34.8460939,75.0654621 34.748453,75.1406051 34.6401108,75.1302274 C34.5317686,75.1198496 34.4505558,75.0275747 34.4551982,74.9201276 C34.4598405,74.8126805 34.5487169,74.7275793 34.6575601,74.7263615 C34.7182002,74.7278739 34.7755805,74.7538058 34.816394,74.7981432 C34.8572075,74.8424807 34.8779085,74.9013718 34.8736961,74.9611591 L34.8624284,74.959135 Z M41.363922,65.7129673 C41.3481103,65.8195247 41.2506161,65.8951906 41.142089,65.8851335 C41.0335618,65.8750763 40.9520091,65.7828181 40.9565284,65.6752142 C40.9610477,65.5676104 41.0500563,65.4823449 41.1590537,65.4812058 C41.2788659,65.4898555 41.369803,65.5913822 41.363922,65.7099311 L41.363922,65.7129673 Z M32.7533098,66.3394316 C32.7374982,66.445989 32.640004,66.5216549 32.5314769,66.5115977 C32.4229497,66.5015406 32.341397,66.4092824 32.3459163,66.3016785 C32.3504356,66.1940747 32.4394442,66.1088092 32.5484416,66.1076701 C32.6681528,66.1173505 32.7586689,66.2188543 32.7533098,66.3374074 L32.7533098,66.3394316 Z M55.1177512,69.5517057 C55.1019396,69.6582631 55.0044454,69.733929 54.8959183,69.7238719 C54.7873911,69.7138147 54.7058384,69.6215565 54.7103577,69.5139526 C54.714877,69.4063488 54.8038856,69.3210833 54.912883,69.3199442 C55.0325942,69.3296246 55.1231102,69.4311284 55.1177512,69.5496816 L55.1177512,69.5517057 Z M55.9105913,73.234587 C55.8947797,73.3411444 55.7972855,73.4168104 55.6887584,73.4067532 C55.5802312,73.3966961 55.4986785,73.3044379 55.5031978,73.196834 C55.5077171,73.0892302 55.5967257,73.0039647 55.7057231,73.0028256 C55.8245189,73.0134816 55.9143331,73.1137547 55.9105913,73.2315509 L55.9105913,73.234587 Z M31.7883804,13.0596046 C31.7603068,13.2791348 31.5616979,13.4375284 31.3385819,13.4183257 C31.1154659,13.3991229 30.9475686,13.2091856 30.9583372,12.9881661 C30.9691059,12.7671465 31.1546927,12.5940214 31.3786439,12.5960818 C31.6190007,12.6144269 31.8007614,12.8187005 31.7883804,13.0565685 L31.7883804,13.0596046 Z M48.9809231,16.1969864 C48.9528495,16.4165166 48.7542406,16.5749102 48.5311246,16.5557074 C48.3080086,16.5365047 48.1401112,16.3465674 48.1508799,16.1255478 C48.1616486,15.9045283 48.3472354,15.7314031 48.5711866,15.7334636 C48.8118054,15.7512899 48.9938584,15.9558921 48.9809231,16.1939502 L48.9809231,16.1969864 Z M43.9217019,11.1822359 C43.8936283,11.401766 43.6950194,11.5601596 43.4719034,11.5409569 C43.2487874,11.5217542 43.0808901,11.3318168 43.0916587,11.1107973 C43.1024274,10.8897778 43.2880142,10.7166526 43.5119654,10.718713 C43.7527411,10.7370611 43.9346585,10.9419603 43.9217019,11.1802118 L43.9217019,11.1822359 Z M44.063061,15.9561165 C44.0344569,16.1754303 43.8356876,16.3333011 43.6127514,16.3137709 C43.3898152,16.2942407 43.2222617,16.1042785 43.2331608,15.8834136 C43.24406,15.6625487 43.4295227,15.4895918 43.6533245,15.4915815 C43.8941002,15.5099297 44.0760176,15.7148288 44.063061,15.9530803 L44.063061,15.9561165 Z M38.7364868,6.8728902 C38.7084132,7.09242037 38.5098042,7.25081395 38.2866882,7.23161122 C38.0635723,7.2124085 37.8956749,7.02247115 37.9064436,6.80145161 C37.9172123,6.58043208 38.1027991,6.40730693 38.3267503,6.40936734 C38.5675259,6.42771547 38.7494434,6.63261464 38.7364868,6.87086608 L38.7364868,6.8728902 Z M39.9493068,25.44113 C39.9212331,25.6606602 39.7226242,25.8190538 39.4995082,25.799851 C39.2763922,25.7806483 39.1084949,25.5907109 39.1192636,25.3696914 C39.1300323,25.1486719 39.3156191,24.9755467 39.5395703,24.9776071 C39.7806093,24.9954343 39.9628204,25.2006643 39.9493068,25.4391059 L39.9493068,25.44113 Z M35.7495078,22.3037482 C35.7214342,22.5232784 35.5228253,22.681672 35.2997093,22.6624693 C35.0765933,22.6432665 34.908696,22.4533292 34.9194647,22.2323096 C34.9302334,22.0112901 35.1158202,21.838165 35.3397714,21.8402254 C35.5803901,21.8580517 35.7624431,22.0626539 35.7495078,22.3007121 L35.7495078,22.3037482 Z M61.9982511,49.8833581 C61.9701775,50.1028883 61.7715685,50.2612819 61.5484525,50.2420792 C61.3253365,50.2228764 61.1574392,50.0329391 61.1682079,49.8119195 C61.1789766,49.5909 61.3645634,49.4177749 61.5885146,49.4198353 C61.8288713,49.4381804 62.010632,49.642454 61.9982511,49.880322 L61.9982511,49.8833581 Z M54.7817673,34.9119747 C54.7536937,35.1315049 54.5550848,35.2898985 54.3319688,35.2706957 C54.1088528,35.251493 53.9409554,35.0615557 53.9517241,34.8405361 C53.9624928,34.6195166 54.1480796,34.4463915 54.3720308,34.4484519 C54.6126496,34.4662782 54.7947026,34.6708804 54.7817673,34.9089385 L54.7817673,34.9119747 Z M50.1025767,69.2369554 C50.0739727,69.4562693 49.8752033,69.61414 49.6522671,69.5946099 C49.4293309,69.5750797 49.2617774,69.3851174 49.2726765,69.1642526 C49.2835757,68.9433877 49.4690384,68.7704307 49.6928402,68.7724205 C49.9336159,68.7907686 50.1155333,68.9956678 50.1025767,69.2339193 L50.1025767,69.2369554 Z M42.5695715,74.028041 C42.5420292,74.2477859 42.3435823,74.4067021 42.1202874,74.3878277 C41.8969924,74.3689533 41.7287509,74.1790421 41.739388,73.9578683 C41.7500252,73.7366944 41.9357348,73.5634005 42.1598351,73.5655302 C42.4004538,73.5833565 42.5825068,73.7879587 42.5695715,74.0260169 L42.5695715,74.028041 Z M49.2277893,74.9550867 C49.1991853,75.1744006 49.000416,75.3322713 48.7774797,75.3127412 C48.5545435,75.293211 48.38699,75.1032487 48.3978891,74.8823839 C48.4087883,74.661519 48.5942511,74.488562 48.8180529,74.4905518 C49.0609409,74.5088957 49.2436526,74.7169459 49.2277893,74.9571108 L49.2277893,74.9550867 Z M34.0675396,71.4290744 C34.039466,71.6486046 33.840857,71.8069982 33.6177411,71.7877955 C33.3946251,71.7685927 33.2267277,71.5786554 33.2374964,71.3576359 C33.2482651,71.1366163 33.4338519,70.9634912 33.6578031,70.9655516 C33.89953,70.9828505 34.0821983,71.1890466 34.0675396,71.4280624 L34.0675396,71.4290744 Z M27.5988249,73.0736697 C27.5707513,73.2931999 27.3721424,73.4515935 27.1490264,73.4323907 C26.9259104,73.413188 26.758013,73.2232507 26.7687817,73.0022311 C26.7795504,72.7812116 26.9651372,72.6080865 27.1890884,72.6101469 C27.4304408,72.6290179 27.6123806,72.8348411 27.5988249,73.0736697 Z M22.1267942,72.526146 C22.0981902,72.7454598 21.8994209,72.9033306 21.6764846,72.8838004 C21.4535484,72.8642703 21.2859949,72.674308 21.296894,72.4534431 C21.3077932,72.2325783 21.493256,72.0596213 21.7170578,72.0616111 C21.9586747,72.0799614 22.1409078,72.2861163 22.1267942,72.5251339 L22.1267942,72.526146 Z M18.7167624,64.8476571 C18.6881583,65.066971 18.489389,65.2248417 18.2664528,65.2053116 C18.0435166,65.1857814 17.875963,64.9958191 17.8868622,64.7749543 C17.8977614,64.5540894 18.0832241,64.3811324 18.3070259,64.3831222 C18.549914,64.4014661 18.7326256,64.6095163 18.7167624,64.8496812 L18.7167624,64.8476571 Z M60.0171752,64.7687166 C59.9891016,64.9882467 59.7904926,65.1466403 59.5673767,65.1274376 C59.3442607,65.1082349 59.1763633,64.9182975 59.187132,64.697278 C59.1979007,64.4762584 59.3834875,64.3031333 59.6074387,64.3051937 C59.8479005,64.3224967 60.0300903,64.5268026 60.0171752,64.7646683 L60.0171752,64.7687166 Z M44.5496231,67.5113955 C44.5215495,67.7309256 44.3229405,67.8893192 44.0998245,67.8701165 C43.8767086,67.8509138 43.7088112,67.6609764 43.7195799,67.4399569 C43.7303486,67.2189373 43.9159354,67.0458122 44.1398866,67.0478726 C44.3816135,67.0651716 44.5642818,67.2713677 44.5496231,67.5103834 L44.5496231,67.5113955 Z M23.3754662,62.9632039 C23.3473925,63.1827341 23.1487836,63.3411277 22.9256676,63.321925 C22.7025516,63.3027222 22.5346543,63.1127849 22.545423,62.8917654 C22.5561917,62.6707458 22.7417785,62.4976207 22.9657297,62.4996811 C23.2088883,62.517493 23.3919006,62.7258856 23.3754662,62.9662401 L23.3754662,62.9632039 Z M11.8147514,65.3921447 C11.7866778,65.6116748 11.5880688,65.7700684 11.3649529,65.7508657 C11.1418369,65.731663 10.9739395,65.5417256 10.9847082,65.3207061 C10.9954769,65.0996866 11.1810637,64.9265614 11.4050149,64.9286218 C11.6481735,64.9464337 11.8311858,65.1548263 11.8147514,65.3951809 L11.8147514,65.3921447 Z M1.34598434,65.8627519 C1.31738027,66.0820658 1.11861095,66.2399366 0.895674729,66.2204064 C0.672738504,66.2008762 0.505184977,66.0109139 0.516084142,65.7900491 C0.526983308,65.5691842 0.712446053,65.3962272 0.936247856,65.398217 C1.17940649,65.416029 1.36241877,65.6244215 1.34598434,65.8647761 L1.34598434,65.8627519 Z M5.6092924,58.5688453 C5.58175002,58.7885902 5.38330318,58.9475064 5.16000824,58.928632 C4.9367133,58.9097576 4.76847174,58.7198464 4.7791089,58.4986726 C4.78974607,58.2774988 4.97545566,58.1042048 5.19955593,58.1063346 C5.44201908,58.1246819 5.62457048,58.3320987 5.6092924,58.5718815 L5.6092924,58.5688453 Z M5.13297375,67.5862878 C5.10490014,67.805818 4.90629121,67.9642115 4.68317522,67.9450088 C4.46005923,67.9258061 4.29216187,67.7358687 4.30293057,67.5148492 C4.31369927,67.2938297 4.49928606,67.1207045 4.72323727,67.1227649 C4.96639591,67.1405769 5.14940819,67.3489694 5.13297375,67.589324 L5.13297375,67.5862878 Z M34.7927732,19.0803415 C34.7641691,19.2996553 34.5653998,19.4575261 34.3424636,19.4379959 C34.1195273,19.4184657 33.9519738,19.2285035 33.962873,19.0076386 C33.9737721,18.7867738 34.1592349,18.6138168 34.3830367,18.6158066 C34.6261953,18.6336185 34.8092076,18.842011 34.7927732,19.0823656 L34.7927732,19.0823656 L34.7927732,19.0803415 Z M30.4905401,24.4928311 C30.4619361,24.7121449 30.2631667,24.8700157 30.0402305,24.8504855 C29.8172943,24.8309553 29.6497408,24.6409931 29.6606399,24.4201282 C29.6715391,24.1992633 29.8570018,24.0263064 30.0808036,24.0282961 C30.3239623,24.0461081 30.5069746,24.2545006 30.4905401,24.4948552 L30.4905401,24.4928311 Z M20.9989946,28.0937357 C20.970921,28.3132659 20.772312,28.4716594 20.549196,28.4524567 C20.3260801,28.433254 20.1581827,28.2433166 20.1689514,28.0222971 C20.1797201,27.8012776 20.3653069,27.6281524 20.5892581,27.6302128 C20.8324167,27.6480248 21.015429,27.8564173 20.9989946,28.0967719 L20.9989946,28.0937357 Z M23.5362877,20.7360694 C23.5076837,20.9553832 23.3089143,21.113254 23.0859781,21.0937238 C22.8630419,21.0741936 22.6954884,20.8842314 22.7063875,20.6633665 C22.7172867,20.4425017 22.9027494,20.2695447 23.1265512,20.2715345 C23.3695543,20.2888176 23.5527075,20.4969182 23.5362877,20.7370815 L23.5362877,20.7370815 L23.5362877,20.7360694 Z M24.8853451,25.20026 C24.8568331,25.4189292 24.6591028,25.5766436 24.4367437,25.5580752 C24.2143845,25.5395069 24.0462512,25.3512407 24.0552905,25.1309455 C24.0643299,24.9106502 24.2473362,24.7364488 24.4704869,24.7357251 C24.5883008,24.7432604 24.6982427,24.7967867 24.7760677,24.8845003 C24.8538927,24.9722139 24.8932085,25.0869104 24.8853451,25.2032962 L24.8853451,25.2032962 L24.8853451,25.20026 Z M27.5855085,17.1331407 C27.5569044,17.3524545 27.3581351,17.5103253 27.1351989,17.4907951 C26.9122627,17.4712649 26.7447091,17.2813027 26.7556083,17.0604378 C26.7665075,16.8395729 26.9519702,16.666616 27.175772,16.6686057 C27.4193582,16.6864107 27.6025329,16.8954405 27.5855085,17.1361768 L27.5855085,17.1361768 L27.5855085,17.1331407 Z M28.8772027,11.1437776 C28.8485987,11.3630915 28.6498294,11.5209623 28.4268931,11.5014321 C28.2039569,11.4819019 28.0364034,11.2919396 28.0473025,11.0710748 C28.0582017,10.8502099 28.2436645,10.6772529 28.4674663,10.6792427 C28.7110525,10.6970477 28.8942271,10.9060775 28.8772027,11.1468138 L28.8772027,11.1468138 L28.8772027,11.1437776 Z M17.8235369,15.8599709 C17.7954633,16.0795011 17.5968543,16.2378946 17.3737383,16.2186919 C17.1506223,16.1994892 16.982725,16.0095518 16.9934937,15.7885323 C17.0042624,15.5675128 17.1898492,15.3943876 17.4138004,15.396448 C17.6566885,15.414792 17.8394001,15.6228422 17.8235369,15.8630071 L17.8235369,15.8630071 L17.8235369,15.8599709 Z M19.6734971,20.0934122 C19.6454235,20.3129423 19.4468145,20.4713359 19.2236985,20.4521332 C19.0005825,20.4329305 18.8326852,20.2429931 18.8434539,20.0219736 C18.8542226,19.800954 19.0398094,19.6278289 19.2637606,19.6298893 C19.5070748,19.6482285 19.6899474,19.8569137 19.6734971,20.0974604 L19.6734971,20.0974604 L19.6734971,20.0934122 Z M18.7177867,11.11544 C18.6891827,11.3347538 18.4904133,11.4926246 18.2674771,11.4730944 C18.0445409,11.4535643 17.8769874,11.263602 17.8878865,11.0427371 C17.8987857,10.8218723 18.0842484,10.6489153 18.3080502,10.6509051 C18.5491599,10.6713292 18.7291982,10.8789302 18.712665,11.1174641 L18.7177867,11.11544 Z M15.9131405,9.12269655 C15.8850669,9.34222672 15.686458,9.5006203 15.463342,9.48141757 C15.240226,9.46221485 15.0723287,9.2722775 15.0830973,9.05125796 C15.093866,8.83023843 15.2794528,8.65711328 15.503404,8.65917369 C15.7433431,8.67751453 15.9249477,8.88116418 15.9131405,9.11864831 L15.9131405,9.12269655 Z M13.6022268,12.8288553 C13.5741532,13.0483854 13.3755442,13.206779 13.1524282,13.1875763 C12.9293123,13.1683736 12.7614149,12.9784362 12.7721836,12.7574167 C12.7829523,12.5363972 12.9685391,12.363272 13.1924903,12.3653324 C13.4332659,12.3836805 13.6151834,12.5885797 13.6022268,12.8268312 L13.6022268,12.8288553 Z M9.54071393,16.9459098 C9.51264032,17.16544 9.31403138,17.3238336 9.0909154,17.3046308 C8.86779941,17.2854281 8.69990205,17.0954908 8.71067075,16.8744712 C8.72143945,16.6534517 8.90702624,16.4803265 9.13097745,16.482387 C9.37243797,16.5002137 9.55480793,16.706073 9.54071393,16.9448977 L9.54071393,16.9459098 Z M13.1842956,18.2524775 C13.1556915,18.4717913 12.9569222,18.6296621 12.733986,18.6101319 C12.5110497,18.5906018 12.3434962,18.4006395 12.3543954,18.1797746 C12.3652945,17.9589098 12.5507573,17.7859528 12.7745591,17.7879426 C13.0160196,17.8057693 13.1983896,18.0116286 13.1842956,18.2504534 L13.1842956,18.2524775 Z M10.4103796,21.3088946 C10.382306,21.5284248 10.1836971,21.6868183 9.96058107,21.6676156 C9.73746509,21.6484129 9.56956773,21.4584755 9.58033643,21.237456 C9.59110513,21.0164365 9.77669191,20.8433113 10.0006431,20.8453717 C10.2416822,20.8631989 10.4238933,21.0684289 10.4103796,21.3068705 L10.4103796,21.3088946 Z M7.00034775,20.6348635 C6.97227414,20.8543937 6.77366521,21.0127873 6.55054922,20.9935846 C6.32743323,20.9743818 6.15953588,20.7844445 6.17030458,20.563425 C6.18107327,20.3424054 6.36666006,20.1692803 6.59061127,20.1713407 C6.83191528,20.1886423 7.01442336,20.3942067 7.00034775,20.6328394 L7.00034775,20.6348635 Z M12.3002891,26.7709751 C12.2716851,26.9902889 12.0729157,27.1481597 11.8499795,27.1286295 C11.6270433,27.1090993 11.4594898,26.919137 11.4703889,26.6982722 C11.4812881,26.4774073 11.6667508,26.3044503 11.8905526,26.3064401 C12.1330158,26.3247875 12.3155672,26.5322043 12.3002891,26.7719871 L12.3002891,26.7709751 Z M4.84615821,30.4143861 C4.8180846,30.6339163 4.61947567,30.7923099 4.39635968,30.7731072 C4.17324369,30.7539044 4.00534634,30.5639671 4.01611504,30.3429476 C4.02688373,30.121928 4.21247052,29.9488029 4.43642173,29.9508633 C4.67899817,29.968153 4.86198903,30.1756172 4.84615821,30.4153982 L4.84615821,30.4143861 Z M3.77572166,35.5465355 C3.74764805,35.7660657 3.54903912,35.9244592 3.32592313,35.9052565 C3.10280714,35.8860538 2.93490979,35.6961164 2.94567848,35.4750969 C2.95644718,35.2540774 3.14203397,35.0809522 3.36598518,35.0830126 C3.60856161,35.1003023 3.79155248,35.3077665 3.77572166,35.5475475 L3.77572166,35.5465355 Z M9.02649464,39.386286 C8.99842104,39.6058161 8.7998121,39.7642097 8.57669611,39.745007 C8.35358013,39.7258043 8.18568277,39.5358669 8.19645147,39.3148474 C8.20722017,39.0938278 8.39280695,38.9207027 8.61675816,38.9227631 C8.85864139,38.9405881 9.04117087,39.1470783 9.02649464,39.386286 Z M17.2611735,31.6733871 C17.2325695,31.8927009 17.0338002,32.0505717 16.8108639,32.0310415 C16.5879277,32.0115113 16.4203742,31.8215491 16.4312733,31.6006842 C16.4421725,31.3798194 16.6276353,31.2068624 16.8514371,31.2088522 C17.0937442,31.2266741 17.2764339,31.4337969 17.2611735,31.6733871 Z M11.0772257,30.5489899 C11.0491521,30.7685201 10.8505432,30.9269137 10.6274272,30.907711 C10.4043112,30.8885082 10.2364139,30.6985709 10.2471825,30.4775514 C10.2579512,30.2565318 10.443538,30.0834067 10.6674892,30.0854671 C10.9097964,30.103289 11.0924861,30.3104118 11.0772257,30.550002 L11.0772257,30.5489899 Z M8.47949644,34.4444036 C8.45142284,34.6639338 8.2528139,34.8223274 8.02969791,34.8031247 C7.80658193,34.7839219 7.63868457,34.5939846 7.64945327,34.372965 C7.66022197,34.1519455 7.84580875,33.9788204 8.06975996,33.9808808 C8.31334619,33.9986857 8.49652083,34.2077156 8.47949644,34.4484519 L8.47949644,34.4444036 Z M25.7550108,9.53460441 C25.7269372,9.75413458 25.5283282,9.91252816 25.3052122,9.89332544 C25.0820962,9.87412271 24.9141989,9.68418536 24.9249676,9.46316583 C24.9357363,9.24214629 25.1213231,9.06902114 25.3452743,9.07108156 C25.5875814,9.0889035 25.7702711,9.29602625 25.7550108,9.53561647 L25.7550108,9.53460441 Z M31.3233295,30.2979994 C31.2952559,30.5175296 31.096647,30.6759231 30.873531,30.6567204 C30.650415,30.6375177 30.4825176,30.4475803 30.4932863,30.2265608 C30.504055,30.0055413 30.6896418,29.8324161 30.913593,29.8344765 C31.1564404,29.8512293 31.3397358,30.0590387 31.3233295,30.2990115 L31.3233295,30.2979994 Z" opacity=".62" transform="translate(43.203 20.342)"/></g><g transform="translate(33.086)"><path fill="#EAA58B" d="M15.1786879,0.0495908732 C12.0544472,0.0850129255 9.71382759,1.2013136 7.11507397,3.11106825 C1.3326679,7.36171452 -0.302180654,14.5736444 0.110628849,21.3615216 C1.37978759,42.045976 14.3848235,40.3224402 20.0955256,34.3684992 C26.7906197,27.3852946 33.4181073,11.3330326 24.4633165,2.95116298 C22.1483054,0.785357502 18.1820563,0.0161929382 15.1786879,0.0495908732 Z" transform="translate(8.912 56.675)"/><path fill="#30242A" d="M123.854119,2.19110695 C114.972056,-2.03929815 97.6822011,-0.629500472 90.551762,12.6902032 C87.5535153,18.2868875 83.7071141,24.7701351 76.4639975,23.9038129 C67.2326346,22.799657 55.1105808,25.1931756 50.1568668,33.8655061 C46.9178999,39.5380947 49.0833572,49.8135261 41.7009302,52.6493144 C39.3734405,53.672321 37.359666,55.2828724 35.8621854,57.3189529 C26.3358122,50.7820662 15.5372073,54.5276952 15.5320856,54.5297193 C11.5598396,55.7708616 7.88036882,57.7876333 4.71196951,60.4603829 C1.9076453,62.8153339 0.221064152,66.2166105 0.0563387659,69.8492509 C2.77555756e-17,72.5969901 0.950588633,75.3244881 4.00414975,75.8295054 C7.98986135,76.4883556 12.9159182,73.5928558 14.6900771,70.1083379 C14.8022156,69.8686943 15.0399271,69.7105416 15.3068451,69.6979938 C15.573763,69.6854459 15.8255989,69.820585 15.9602602,70.0486265 C17.7333948,73.095935 22.5160439,79.8767279 29.082071,78.0438897 C29.082071,78.0438897 32.8096486,76.4762109 34.2375802,74.2820677 L33.9999331,79.1480457 C33.9056937,81.0962585 33.039101,84.6526326 34.8316981,86.1919738 C36.200218,87.3710221 38.6156145,84.9410693 39.6297123,83.8409616 C42.4650887,80.7693636 44.1870063,74.9348456 43.2866104,69.1792681 C46.7816626,69.4312707 52.2547176,69.6589839 60.2517493,69.5840915 C76.4301942,69.4282345 78.9674874,57.3614594 86.4236669,45.1388272 C93.8798465,32.9161951 102.602112,32.6014449 112.434763,36.2063977 C122.267414,39.8113506 135.908566,34.6397309 138.760332,24.7701351 C141.612098,14.9005393 132.736181,6.42252411 123.854119,2.19110695 Z"/><path fill="#0958BD" d="M10.108199,14.0767236 C9.08385775,4.54616739 4.21413969,1.16993978 1.81103524,0.0718561632 C1.16564004,0.694428182 0.563335291,1.3591626 0.00819472959,2.06156344 C7.09458714,8.76847603 7.44388749,13.9137821 7.44388749,13.9137821 C8.22443549,13.9704574 9.11663667,14.0261206 10.108199,14.0767236 Z" transform="translate(35.852 55.258)"/><path fill="#EAA58B" d="M7.27282251,5.58150338 C7.13760947,8.78770514 5.86947507,10.8442083 3.75216181,10.8037259 C1.63484855,10.7632436 -0.0379006244,8.31912199 0.0215111652,5.34468166 C0.0809229547,2.37024133 1.84176548,-0.011132645 3.96010307,0.0283376418 C6.07844067,0.0678079286 7.39984082,2.60503893 7.27282251,5.58150338 Z" transform="translate(29.091 73.374)"/><path fill="#CA7358" d="M2.39593406,4.08466866 C2.3744229,4.08466866 2.35291173,4.08466866 2.33242491,4.08466866 C1.56117723,3.94992276 0.876567006,3.51587431 0.431247645,2.87930682 C-0.00643769473,2.08690576 -0.0591235931,1.14175099 0.287839877,0.306653767 C0.330849325,0.160248146 0.450603248,0.0482510538 0.600921598,0.0138513137 C0.751239948,-0.0205484265 0.908636831,0.0280238367 1.01241615,0.140837448 C1.11619547,0.253651059 1.15014263,0.413079903 1.10116679,0.557644309 L1.10116679,0.564728719 C0.839870121,1.16350032 0.859362103,1.84568715 1.15443253,2.42894073 C1.46686787,2.85996224 1.93599177,3.1548171 2.46354058,3.2517444 C2.6833378,3.28572056 2.83969303,3.4810369 2.82252773,3.70018516 C2.80536243,3.91933342 2.62045378,4.08855666 2.39798275,4.08871689 L2.39593406,4.08466866 Z" transform="translate(31.55 76.41)"/><ellipse cx="1.171" cy="1.175" fill="#30242A" rx="1.08" ry="1.095" transform="rotate(-3.05 1485.693 -174.924)"/><path fill="#EAA58B" d="M3.15599523,0.0576873423 C3.15599523,0.0576873423 -0.311399724,5.52280398 0.142383427,6.40329499 C0.596166578,7.28378601 2.80567054,8.00437176 3.09863213,6.61582731 L3.15599523,0.0576873423 Z" transform="translate(7.375 78.333)"/><path fill="#CA7358" d="M2.05687713,3.4096264 C1.42138704,3.40283657 0.795783651,3.25332926 0.227403746,2.97241622 C0.0934616776,2.90010148 0.00874176719,2.76267949 0.0051571915,2.61191578 C0.00157261581,2.46115206 0.0796679572,2.31995123 0.210025451,2.24150228 C0.340382944,2.16305333 0.503198181,2.15927452 0.637140226,2.23158929 C1.34494381,2.5847243 2.16462623,2.64975967 2.92039676,2.41274779 C3.78238027,1.99120017 4.40944922,1.21212538 4.63104656,0.287424653 C4.71315699,0.0762739132 4.94946465,-0.0330371651 5.16618762,0.0398793722 C5.38291058,0.112795909 5.50258563,0.341877525 5.43720308,0.558656367 C5.13997891,1.72102373 4.32668208,2.68825362 3.22462609,3.19000882 C2.85290077,3.33539812 2.4566694,3.40991674 2.05687713,3.4096264 Z" transform="translate(13.112 86.227)"/><path fill="#CA7358" d="M0.729330934,4.43787712 C0.61730191,4.43889611 0.505348189,4.43179263 0.394371362,4.41662389 C0.244143995,4.39149454 0.11889724,4.2890897 0.0658103459,4.1479843 C0.0127234519,4.00687891 0.0398615832,3.84851021 0.137002066,3.73253419 C0.234142549,3.61655817 0.386527431,3.56059435 0.536754788,3.58572375 L0.536754788,3.58572375 C0.584898825,3.59382022 3.08736437,3.89946193 7.20726468,0.156869089 C7.38066032,-0.000473787231 7.65032485,0.0108540715 7.80957728,0.18217057 C7.96882972,0.353487068 7.95736439,0.619918138 7.78396877,0.777261033 C4.12604635,4.09681336 1.60719134,4.43787712 0.729330934,4.43787712 Z" transform="translate(21.511 90.58)"/></g></g><path fill="#FC0" d="M236.939803,220.547141 C237.762131,221.007182 238.701934,220.777162 239.28931,219.97209 L239.28931,219.97209 L253.151405,195.589917 L267.4834,205.020758 L268.423203,205.595809 C269.128056,206.05585 269.832908,206.28587 270.53776,206.515891 C274.179497,207.435973 277.821233,205.250778 278.878512,201.800471 L278.878512,201.800471 L288.863918,163.847089 C289.216345,163.042017 288.863918,162.121935 288.041591,161.776904 C287.219263,161.431873 286.27946,161.776904 285.927034,162.581976 L269.480482,188.229261 L254.79606,178.5684 L253.856257,177.993349 C253.151405,177.533308 252.211602,177.188277 251.389274,177.073267 C247.630062,176.383206 244.105801,178.683411 243.283473,182.363739 L236,218.821987 C236,219.512049 236.352426,220.20211 236.939803,220.547141 Z"/></g></svg>